<mxfile host="65bd71144e">
    <diagram id="ZjGLIO4T-CgkreQm1MAu" name="ページ2">
        <mxGraphModel dx="688" dy="175" grid="1" gridSize="10" guides="1" tooltips="1" connect="1" arrows="1" fold="1" page="1" pageScale="1" pageWidth="827" pageHeight="1169" math="0" shadow="0">
            <root>
                <mxCell id="0"/>
                <mxCell id="1" parent="0"/>
                <mxCell id="1E2dCnLQcUhuQDEiOaA5-5" value="" style="rounded=0;whiteSpace=wrap;html=1;fillColor=none;" vertex="1" parent="1">
                    <mxGeometry x="309.45" y="97.55" width="260.55" height="137" as="geometry"/>
                </mxCell>
                <mxCell id="AsPMvLqgGhPOoDrevvMt-3" value="" style="shape=image;verticalLabelPosition=bottom;labelBackgroundColor=default;verticalAlign=top;aspect=fixed;imageAspect=0;image=data:image/png,iVBORw0KGgoAAAANSUhEUgAABLAAAAKICAYAAABg2AM1AAAABGdBTUEAALGPC/xhBQAAAAFzUkdCAK7OHOkAAAAgY0hSTQAAeiYAAICEAAD6AAAAgOgAAHUwAADqYAAAOpgAABdwnLpRPAAAAAZiS0dEAAAAAAAA+UO7fwAAAAlwSFlzAAAASAAAAEgARslrPgAAdXdJREFUeNrs/XeUnHl97/u+n6quzrmlVivnljRMZBhSYYzBBGMwGLAxGGzywAx7n7PXubW8wzn73n3u2eeuu2rdvfbZh4EhBwM2GLBJtjHBpCIzeUZq5axWq3NOVc/94ylp8oyk6e7n6ar3a62ZgZbU/enqUlU9n/r9vr8ASZIkPa18gXpgB9Bb/u9uYBuwEVgDtAENQFD+I3PABDAMnANOAIeAI+X/HsxlGY/7+5IkSVoNgmf+KSRJkipTvkAnUWH1u8ALge3AJqCdq38dNQWcBU4CvwL+FbgfOJ/LEsb9PUuSJCWRBZYkSdJj5AtsB14N/CHwPKLCKrUMXyoEpoG7gX8Cvg7sz2UpxX0bSJIkJYkFliRJUlm+wCbgz4C3A3uB2hX88iXgKPBl4DO5LIfivj0kSZKSwgJLkiRVvXyBZuA1wAeALJCOMU4I3AvcCXwll2Uo7ttHkiQpbhZYkiSpauULZIAXEBVXrwZa4870CDPAD4E7gB/ksszEHUiSJCkuFliSJKnq5AsERKcIvgd4C9Fg9qQaAr5GtCLr3lyWYtyBJEmSVpoFliRJqir5At3AnwC3As9ieYazL4ejwGeAz+WynIg7jCRJ0kqywJIkSVUhX6AJeBlwO/BioD7uTFdhEfgN0Wqsb+SyjMQdSJIkaSVYYEmSpIpW3i74HOD9wBuA9rgzLYFp4DvAh4Cf5rLMxx1IkiRpOVlgSZKkipUvsAN4O/CXwPa48yyD88CXgI8DD+ayhHEHkiRJWg4WWJIkqeLkC7QTrba6FbiFyn/NcwD4BPDFXJZzcYeRJElaapX+Yk6SJFWRfIE64HeB24CXA41xZ1pB88DPgQ8D/5TLMhF3IEmSpKVigSVJkla9fIEUcC3wPuBNwLq4M8VoDPg2UZH1a+djSZKkSmCBJUmSVrV8gY3AnwPvBnrjzpMgZ4DPA5/MZTkUdxhJkqRnwgJLkiStSvkCbcAfEG0XfB5QG3emBCoB9wMfA76SyzIQdyBJkqSrYYElSZJWlXyBNPBCouLqNUBz3JlWgTngh8AdwPdyWWbiDiRJknQlLLAkSdKqkS+wF3gX8FZgY9x5VqFh4O+BjwJ35bIU4w4kSZJ0OSywJElS4uULrAXeDLwXuD7uPBXgGPAZ4HO5LMfjDiNJkvR0LLAkSVJi5Qs0AK8AbgdeDNTFnamCFIG7gI8A/5DLMhJ3IEmSpCdjgSVJkhInX6AGuAn4APBHQFfcmSrYFPA9ovlYP3U+liRJSiILLEmSlCj5AtuBvyz/sy3uPFXkAvBlovlYD+SyhHEHkiRJusgCS5IkJUK+QBfwOuD9RKuvauLOVIVC4CDwSeBvcllOxx1IkiQJLLAkSVLM8gVqgZcAtwGvBOrjziQWgZ8DHwa+ncsyEXcgSZJU3SywJElSLPIFAqITBd8L/CmwNu5MepwJ4NtEg95/nsuyEHcgSZJUnSywJEnSissX2Ai8DXgHsDfuPHpaZ4AvEm0tPOh8LEmStNIssCRJ0orJF2gBXkO0XfD5OOdqNQmBB4CPAV/OZRmIO5AkSaoeFliSJGnZledcPZ+ouHoV0BZ3Jl21WeAnwB3A93NZJuMOJEmSKp8FliRJWlb5AnuAdwN/DmyIO4+WzCjwD0SD3n+by1KKO5AkSapcFliSJGlZ5AusA/4EeB/wLCAVdyYti+PA54DP5rIcjTuMJEmqTBZYkiRpSeULNACvINou+BKgNu5MWnYl4C7gTuDvc1mG4w4kSZIqiwWWJElaEvkCKeAW4Fbg9UBH3Jm04maA7xHNx/phLstc3IEkSVJlsMCSJEnPWL7AduAdwNuAHXHnUewGgK8QnVj4QC5LMe5AkiRpdbPAkiRJVy1foAN4A/B+4Nk450qPdgj4FPDXuSxn4g4jSZJWLwssSZJ0xcpzrl4M3A68FGiKO5MSax74NdFphf+YyzIadyBJkrT6WGBJkqTLli8QANcTnSz4J8DauDNp1ZgE/gn4EPDzXJaFuANJkqTVwwJLkiRdlnyBTcBbgXcDu/F1hK7OOeCLwCdzWfbHHUaSJK0OvvCUJElPKV+gBXgN8AHgBUBN3Jm06oXAg8DHgS/lspyPO5AkSUo2CyxJkvSE8gVqgCxRcfWHQHPcmVRx5oGfEM3H+k4uy1TcgSRJUjJZYEmSpEcpz7naA7wHeDOwKe5MqngjwDeBjwC/dT6WJEl6LAssSZJ0Sb7AWqLS6n3AdXHnUdU5CXwO+HQuy9G4w0iSpOSwwJIkSeQLNAMvAz5ItG2wIe5MqlpF4F7gTuAfclkuxB1IkiTFzwJLkqQqli+QBp4DvB94PdAedyapbBb4PvAh4Ie5LLNxB5IkSfGxwJIkqUrlC+wA/rL8z9a480hPYgj4O+BjwD25LGHcgSRJ0sqzwJIkqcrkC3QCfwzcCtwMpOLOJF2Gw8Cngc/nspyMO4wkSVpZFliSJFWJfIFa4KXAbcDLgfq4M0lXqAj8Cvgw8I1clvG4A0mSpJVhgSVJUoXLF0gRnSh4K/BGoDvuTNIzNAF8h6jI+lkuy1zcgSRJ0vKywJIkqYLlC2wE3ga8C+iNO4+0xPqBvwU+Dux3PpYkSZXLAkuSpAqUL9AGvBq4HbgFqI07k7RMQmA/UYn15VyWs3EHkiRJS88CS5KkCpIvkAFeCHyAqMBqiTuTtELmgQJwB/CdXJbJuANJkqSlY4ElSVKFyBfYC7wb+HNgfdx5pJiMA98APgL8MpelGHcgSZL0zFlgSZK0yuULrAPeTFReXYfP7xLAKeCvgc8Ah3LZuONIkqRnwhe4kiStUvkCDcCrgNuA3wUycWeSEiYE7gU+CvxdLstQ3IEkSdLVscCSJGmVyReoAW4mmnP1WqAz7kxSwk0DPyKaj/XDXJapuANJkqQrY4ElSdIqki+wHXgn8HZgW9x5pFVmGPgqcCdwTy5LKe5AkiTp8lhgSZK0CuQLdAGvJ1p1dQNQE3cmaRU7Cnwa+Hwuy/G4w0iSpKdngSVJUoLlC9QDLyGac/UyoDHuTFKFKAK/Jjqt8Ju5LCNxB5IkSU/OAkuSpATKFwC4EXgv8KfAmrgzSRVqBvhnovlYP8llmY87kCRJejwLLEmSEiZfYBPwNuAdwJ6480hVoh/4MvBx4CHnY0mSlCwWWJIkJUS+QDPwR0TbBZ8PpOPOJFWhA8AngC/mspyLO4wkSYpYYEmSFLN8gVrgBUTF1auA1rgzSVVuDvgF0bbC7+SyjMcdSJKkameBJUlSTPIFAqItgu8B/gzYGHcmSY8yDnwL+DDwq1yWhbgDSZJUrSywJEmKQb5AD/AnwK3APiAVdyZJT+oM8NfAp3NZDsYdRpKkamSBJUnSCsoXaAJeQbRd8HeAurgzSbosJeB+4KPAV3NZBuIOJElSNbHAkiRpBZS3Cz4X+ADweqAt7kySrso88K9E87G+m8syG3cgSZKqgQWWJEnLLF9gB/AO4O3AtrjzSFoSQ8A/EK3IuiuXpRh3IEmSKpkFliRJyyRfoAN4I/B+4Nn4vCtVomPAZ4HP5LKciDuMJEmVyhfSkiQtsXyBeuAlwO3AS4HGuDNJWlaLwF3AncDXc1mG4w4kSVKlscCSJGmJ5AukgOuIThZ8I9AddyZJK2oa+C7wIeAnuSxzcQeSJKlSWGBJkrQE8gU2A38OvBvYFXceSbG6AHwJ+DhwXy4bdxxJklY/CyxJkp6BfIE24DVEc66eB2TiziQpMfqATwJ/k8tyOu4wkiStZhZYkiRdhXyBGuBFwG3Aq4GmuDNJSqQi8DPgw8C3clkm4w4kSdJqZIElSdIVyBcIgL3Ae4A3AxvjziRpVRgH/hH4CPCLXJb5uANJkrSaWGBJknSZ8gW6gbcQlVfXxp1H0qp0Bvgi8AngUC5LGHcgSZJWAwssSZKeRr5AE/AK4HaibYN1cWeStKqVgAeBjwF/l8tyPu5AkiQlnQWWJElPojzn6mbgA8AfAR1xZ5JUUeaAHwN3AN/LZZmKO5AkSUllgSVJ0hPIF9gBvAP4S2BL3HkkVbQx4GvAncBvcllKcQeSJClpLLAkSXqEfIEu4A3A+4CbgHTcmSRVjePAZ4HP5bIcjTuMJElJYoElSRKQL1ALvJRoztXLcc6VpHiEwG+JVmN9LZdlJO5AkiQlgQWWJKmq5QukgOuBW4lWXnXHnUmSgGnge8CHgR/lsszGHUiSpDhZYEmSqla+wCbg7USzrnrjziNJT+AC8BXgo8D9zseSJFUrCyxJUtXJF2gDXgPcBtwCZOLOJElP4xDwSeCLuSyn4g4jSdJKs8CSJFWNfIE64AVExdUrgda4M0nSFVgAfkW0rfDbuSxjcQeSJGmlWGBJkqpCvsA+4D3AW4GeuPNI0jMwDXyLqMgq5LIsxh1IkqTlZoElSapo+QI9wJuJyqtn4XOfpMpxFvgb4FPAQ7ls3HEkSVo+voiXJFWkfIEG4A+Itgu+GOdcSapcDwAfB/42l2Ug7jCSJC0HCyxJUkXJF0gTDWb/APBaoCPuTJK0AuaAnxJtK/yXXJbJuANJkrSULLAkSRUjX2AH8E7gbcC2uPNIUgxGgG8SFVl35bIsxB1IkqSlYIElSVr18gU6gTcQrbq6EUjFnUmSYnYK+CzwmVyWI3GHkSTpmbLAkiStWuU5Vy8hmnP1e0BT3JkkKUGKwL3AR4B/yGUZjDuQJElXywJLkrTq5AsEwA3ArcCfAF1xZ5KkBJsDvgfcAfwgl2Uu7kCSJF0pCyxJ0qqSL7CZaMbVO4HdceeRpFVkEPgK0YmF9+SylOIOJEnS5bLAkiStCvkCLcDriOZcPQ9Ix51Jklapw8Cngc/lspyOO4wkSZfDAkuSlGj5AhkgC9wOvBJoiTuTJFWAReBXRPOxvpXLMhp3IEmSnooFliQpkcpzrvYC7wXeDGyIO5MkVaAJ4F+I5mP9zPlYkqSkssCSJCVOvsA64M+A9wH78PlKkpbbeeCLwCdzWR6MO4wkSY/lBYEkKTHyBZqBVwC3EW0brI87kyRVkRDYTzTk/cu5LGfjDiRJ0kUWWJKk2OULpIFbiAa0vw5oizuTJFWxReAnwIeBf8plmYo7kCRJFliSpFjlC+wE3gG8Hdgadx5J0iVjwDeAO4Ff5bIsxh1IklS9LLAkSbHIF+gE3kQ05+rZ+JwkSUl1EvgC8CngcC4bdxxJUjXyYkGStKLyBeqB3wM+WP5vQ9yZJElPqwTcR7Qa66u5LINxB5IkVRcLLEnSiijPuboeuBX4Y6A77kySpCs2A/wQuAP411yW6bgDSZKqgwWWJGnZ5QtsBt4GvBvYGXceSdIzNgJ8hWhF1t25LGHcgSRJlc0CS5K0bPIF2oHXEJ0ueAuQiTuTJGlJHQE+DXwhl+V43GEkSZXLAkuStOTyBTJAFrgd+AOgKe5MkqRlUwJ+BXwE+Houy1jcgSRJlccCS5K0ZPIFAK4B3gP8GbA+7kySpBUzBXyHqMj6cS7LfNyBJEmVwwJLkrQk8gXWAW8hmnN1bdx5JEmx6Qe+DHwM2J/LUoo7kCRp9bPAkiQ9I/kCjcCriLYLvgiojTuTJCl2IdAHfAL4m1yWs3EHkiStbhZYkqSrUp5z9RyiAe2vATriziRJSpx54OfAHcB3clnG4w4kSVqdLLAkSVcsX2An8E7gL4DNceeRJCXeJPAN4MPAL3JZinEHkiStLhZYkqTLli+wBngDcCtwA5COO5MkaVU5DXwe+EwuS1/cYSRJq4cFliTpaeUL1AEvA24r/7c+7kySpFXtHuDjwJdzWQbjDiNJSj4LLEnSk8oXCIAbiVZcvRFYE3cmSVLFmAN+SLSt8Lu5LDNxB5IkJZcFliTpCeULbAbeDrwD2B13HklSxRoCvg58BLgnl2Ux7kCSpOSxwJIkPUq+QCvwR0TbBZ+Lc64kSSvjGPAZ4HO5LMfjDiNJShYLLEkScGnO1QuB24GXA61xZ5IkVZ1F4C6i1VjfzGUZijuQJCkZLLAkqcqV51ztBd4LvAXoiTuTJKnqzQDfIZqP9aNclvm4A0mS4mWBJUlVLF9gPfBm4D3APiAVdyZJkh5hAPgy8Ang3lw27jiSpLhYYElSFcoXaAJeRTTn6kVAbdyZJEl6CgeATwFfyGU5G3cYSdLKs8CSpCqSL5AmGsx+G/BaoC3uTJIkXaZF4OdE2wq/ncsyEXcgSdLKscCSpCqQLwCwE3gX8OfA1rgzSZJ0lcaAfyIqsn7pfCxJqg4WWJJU4fIFOoE3Ae8HbsTHfklSZTgLfAH4ZC5LX9xhJEnLy4sYSapQ+QKNwEuA28v/bYw7kyRJS6wEPAh8FPhqLkt/3IEkScvDAkuSKky+QAq4AbiVaOVVV9yZJElaZvPAD4m2Ff5LLstM3IEkSUvLAkuSKki+wBbgbcA7gV1x55EkaYWNAn9PtCLr17kspbgDSZKWhgWWJFWAfIE24I+I5lw9F6iJO5MkSTE6Bvw18JlclmNxh5EkPXMWWJK0iuULZIAXEc25ehXQFHcmSZISogTcBdwJfC2XZSTuQJKkq2eBJUmrUL5AAOwD3gu8GVgfdyZJkhJqCvgBcAfwY+djSdLqZIElSatMvsA64C1E5dU1ceeRJGmVGAS+DHwMuC+XJYw7kCTp8llgSdIqkS/QAryCaLvgC4G6uDNJkrTKhMBh4JPAF3NZTsUdSJJ0eSywJCnh8gVqgFuADxANam+LO5MkSatcEfg58BHgW7ks43EHkiQ9NQssSUqwfIFdwDuBtwOb484jSVKFmQK+TVRk/TSXZTHuQJKkJ2aBJUkJlC/QBbwJeB9wI5CKO5MkSRXsDPAl4BPAAedjSVLyWGBJUoLkC9QBLwM+CPweUB93JkmSqsgDwMeBv81lGYg7jCTpYRZYkpQA+QJp4Hrg/cAbgDVxZ5IkqUrNAgXgDuB7uSwTcQeSJFlgSVLs8gU2E824ehewM+48kiQJgDHgH4A7gV/nshTjDiRJ1cwCS5Jiki/QDrwWuA24GcjEnUmSJD3OSeBzwGdzWQ7HHUaSqpUFliStsPKcqyxRcfVKoDnuTJIk6SmFwG+BjwFfy2UZijuQJFUbCyxJWkH5AtcA7wXeAqyLO48kSbois8D3gQ8D389lmYs7kCRVCwssSVoB+QI9RKXVe4B9+PgrSdJqdgH4GvBR4D7nY0nS8vMCSpKWUb5AI/Bq4HaibYPOuZIkqXIcBj4NfC6X5XTcYSSpkllgSdIyyBeoAW4hmnP1GqA97kySJGlZLAC/IdpW+O1clpG4A0lSJbLAkqQllC8AsBN4F/A2YEvcmSRJ0oqYAv6JqMj6aS7LQtyBJKmSWGBJ0hLJF1gDvBF4P3AdkI47kyRJWnHngS8Cn8xleTDuMJJUKSywJOkZKs+5+j2i7YK/BzTEnUmSJMXuAeBTwN/mspyLO4wkrXYWWJJ0lfIFAuBGohVXbwI6484kSZISZRH4CdG2wn/MZZmOO5AkrVYWWJJ0FfIFtgBvB94B7Io7jyRJSrQR4NvAR4BfOx9Lkq6cBZYkXYF8gVbg9UTbBZ+Dc64kSdLlOwX8NfCpXJYjcYeRpNXEAkuSLkO+QB2QBW4HXgE0x51JkiStSkXgfuBO4Gu5LBfiDiRJq4EFliQ9hfKcq33Ae4E3A+vjziRJkirCLPADovlYP8hlmYk7kCQlmQWWJD2J8qqrPwH+A1GJ5WOmJElaaiPAV4lOLPxlLksp7kCSlERejEnSE8gX6AL+LfBBPF1QkiQtvxNEJdYnclnOxh1GkpLGAkuSHiNfYDPwX4C3AZm480iSpKpRAr4D/D9zWX4ddxhJShILLEl6hHyBvcD/F/hDPGFQkiTF4yHgPwLfzmVZjDuMJCWBBZYkleULXAv8X8BL484iSZKq3mngr4C/dS6WJFlgSRIA+QL7gDuA34s7iyRJUtkZ4H8BvpLLUow7jCTFyQJLUtXLF9gBfAh4FT4uSpKkZDkBvA/4l1w27iiSFJ9U3AEkKU7l0wb/dyyvJElSMm0F/k/gWXEHkaQ4WWBJqlr5Ag3A/wN4E5ZXkiQpuW4C/tfyG2+SVJUssCRVpXwBgD8BbgPq4s4jSZL0FFLAG4C35Qu+6SapOllgSapWzyY62ac17iCSJEmXoZbojbdnxx1EkuJggSWp6uQLtBCd6HNN3FkkSZKuQC/wvvIYBEmqKhZYkqrR64HXxh1CkiTpKrwBeEHcISRppVlgSaoq+QKbgVuBlrizSJIkXYUu4C/yBRrjDiJJK8kCS1LVKA89fR3wvLizSJIkXaUAeBVwQ9xBJGklWWBJqibrgLcDNXEHkSRJegbWAa/NF7yek1Q9fMCTVBXyBQBeDlwbdxZJkqQl8CqiIkuSqoIFlqRq0QK8GpwXIUmSKsIO4Plxh5CklWKBJalabAN+J+4QkiRJS6QNeGG+4GgESdXBAktStXguLrOXJEmV5dlAR9whJGklWGBJqnjl0wezOLxdkiRVlmcB3XGHkKSVYIElqRq0AXvjDiFJkrTEOoDtcYeQpJVggSWpGmwB1sYdQpIkaYnVAHviDiFJK8ECS1I1WAe0xx1CkiRpiaWAzflC3DEkaflZYEmqBp1AS9whJEmSlkEPEMQdQpKWmwWWpGrQBNTFHUKSJGkZtGCBJakKWGBJqgaZuANIkiQtE9+kk1QVLLAkSZIkSZKUaBZYkiRJkiRJSjQLLEmSJEmSJCWaBZYkSZIkSZISzQJLkiRJkiRJiWaBJUmSJEmSpESzwJIkSZIkSVKiWWBJkiRJkiQp0SywJEmSJEmSlGgWWJIkSZIkSUo0CyxJkiRJkiQlmgWWJEmSJEmSEs0CS5IkSZIkSYlmgSVJkiRJkqREs8CSJEmSJElSollgSZIkSZIkKdEssCRJkiRJkpRoFliSJEmSJElKNAssSZIkSZIkJZoFliRJkiRJkhLNAkuSJEmSJEmJZoElSZIkSZKkRLPAkiRJkiRJUqJZYEmSJEmSJCnRLLAkSZIkSZKUaBZYkiRJkiRJSjQLLEmSJEmSJCWaBZYkSZIkSZISzQJLkiRJkiRJiWaBJUmSJEmSpESzwJIkSZIkSVKiWWBJkiRJkiQp0SywJEmSJEmSlGgWWJIkSZIkSUo0CyxJkiRJkiQlmgWWJEmSJEmSEs0CS5IkSZIkSYlmgSVJkiRJkqREq4k7gCRJkvS0AgjK/zO89C9JklQtLLAkSZKUcAFzQ11MntpMaSFDXecwTRtPk66ftciSJKlKWGBJkiQpuQKYH2vh/C9eyNzgGsIwIFU7T8PaAdp6D9C44QypzKJFliRJFc4CS5IkSYk2P9LB3HAnBCFBEBIu1jB9diOzg2tp2nSKtt4D1K8ZJEgXLbIkSapQFliSJElKrhCKc/UQBo/+eBBSWsgwcXQn0/3radl2jNadh6jrGI6GZVlkSZJUUSywJEmSlHDBU/xSSHGmgdH91zB9ZhMtOw7Rsv0omebJuENLkqQlZIElSZKkijA/1sbQPTczdXoLrbv6aN5ygnT9vKuxJEmqABZYkiRJqgxB1FTNXuhmbqSTyZPbo0Hv68+RyixYZEmStIpZYEmSJKmyBCFhMc30mU0PD3rf3Uf9mgsE6ZJFliRJq5AFliRJkipTEFKar2XiyC5mzm2gefsRWncepq59xEHvkiStMhZYkiRJqmxByOJMA6MPXVse9H6E1u1HqGmaijuZJEm6TBZYkiRJqhrzox0M3fNspk5toa23j6bNJ0jXOehdkqSks8CSJElS9QhCCINo0PtoBw0nttHeu5+Gnn5SmUWLLEmSEsoCS5IkSdUnCAkXa5g+vZnZC900bz55adA7qdAiS5KkhLHAkiRJUvUqD3ofP7yb6XPradl+jNadh6htG3XQuyRJCWKBJUmSJAUhi1PNjDx4LVOnN9G66xAt245Q0zgTdzJJkgSk4g4gSZIkJUIQLbeaH+1g6O6bOffjlzF+dCelxUzcySRJqnquwJIkSZIeKQgJSylmB7qZH+lgbngNXdffQ6p2Lu5kkiRVLVdgSZIkSU8kCCktZBjr28vYkV1xp5EkqapZYEmSJElPJggJi2kmju1kYbIlGuwuSZJWnAWWJEmS9FSCkIXxVubH2wgssCRJioUFliRJkvQ0SgsZSvMOc5ckKS4WWJIkSdLTCQPcPyhJUnwssCRJkiRJkpRoFliSJEmSJElKNAssSZIkSZIkJZoFliRJkiRJkhLNAkuSJEmSJEmJZoElSZIkSZKkRLPAkiRJkiRJUqJZYEmSJEmSJCnRLLAkSZIkSZKUaBZYkiRJkiRJSjQLLEmSJEmSJCWaBZYkSZIkSZISzQJLkiRJkiRJiWaBJUmSJEmSpESzwJIkSZIkSVKiWWBJkiRJkiQp0SywJEmSJEmSlGgWWJIkSZIkSUo0CyxJkiRJkiQlmgWWJEmSJEmSEs0CS5IkSZIkSYlmgSVJkiRJkqREs8CSJEmSJElSollgSZIkSZIkKdEssCRJkiRJkpRoFliSJEmSJElKNAssSZIkSZIkJZoFliRJkiRJkhLNAkuSJEmSJEmJZoElSZIkSZKkRLPAkiRJkiRJUqJZYEmSJEmSJCnRLLAkSZIkSZKUaBZYkiRJkiRJSjQLLEmSJEmSJCWaBZYkSZIkSZISzQJLkiRJkiRJiWaBJUmSJEmSpESzwJIkSZIkSVKiWWBJkiRJkiQp0SywJEmSJEmSlGgWWJIkSZIkSUq0mrgDSJISLoBwMU2pWEOQKpHKLEQfD+MOpiQIw4fvCgEQBHEnkiRJUiWywJIkPbEASnO1TPevZ+rMZhYmW0jXz9LYc5qmTaepaZyJfp9FVtW5+COvT7fR2XANjZm1AEwtnGd4+kHmipMQRIWWqtxj7wQ+Xigguh+EAWEp+v9BKnz445IkPQkLLEnSo5VXXM0M9DDat5eZ/vWU5msv/fLUqS1MHB2grbePpk2nSdXOe9FRRcIQ6mva2db+Kq7rfiedjddQV9MKIcwVR7kwdT/3D3yCE2PfZ35xwhVZ1SqA0nyG4lw9YSlFkCqRrp2LHi9U1RbGW5g6vYWZgW6Kc3UEQUimdYKmjadpWHeOVO2CzymSpCdkgSVJigRACeZGOhg7uJfJE9spztZDEEb/lIXFFDPn1zM3vIbGjado37uf+jUDBOnQi44KFoaQTtWwoSXLjetvY2fHH5JJNz3q99TVtNJat4VNrb/DoeGvc0//hzk/+StKYckiq1oEUFqoYfrMJiZPbmNutIPSfC2pzCKZ1lGaNpymecsJ0g2z0e/3MaM6BFCcq2XyxHbGDu5lbqQDSinCMHpgCM6FTBzbQePG07Tv8TlFkvTELLAkSRDAwmQzE0d3Mn5kFwsTreWPP8nVQxBSWqxh8vgOZgfW0bL9KK27DlLbNhb3d6Jl0tV4Ddd1v4t9a99Kc+36p/y9dTWtXNv9dra0/S4PDnyOBy98lpHZw24prGQBhMWA2cFuxvr2MnVm88MrN4MQwoD50Tamz25k4vgO2nr307ThLKk6V3BWtADCxRqm+9cx1ncN0/09hIuZS2+MBI94jiktZJg8Vn5O2eZziiTp8SywJKmaledcTZ7awtjBvcwOrYFS6smLq8f9+ZDF6SZGHrqWqbObaNvdR8u2o9HqCi9KV70whKbadexZ82ZuWPde1jRee0V/vrVuC8/f/J/Y0fFq7j3/UQ4OfZWZhSFXY1WS8tyi+bFWxg/3MnFsJ4tTTY9buXnxf4fFNDP965kbWkPjhtO09fbR0H2eoKboY0YlCYBSwNxweUXvyW1PuKL38X8uZHHqsc8px0g3zHj/kCRZYElSVQogXEwxc76HsYP7mDq74VHvil/Z54p+//xIB4O/vYXJU1to3/MQjRvOksosetGxCoUh1Kab2Nr+Km7q+QCbWn+HdKr2qj5XQMC65mfz0sb/i52dr+Oe/o9wcvR7LJZmLbJWuwCKM/VMnNjO+ME9zI12QBg8/WPIxRWcJ7Yzc76H5i0nad3VR33XEKTcNrbqBbA42cz40R2MH+llYaKl/PHLf2MEHvmcsrX8nHLG5xRJqnIWWJJUTS6+Kz7SwdjBPdG74jMNV1dcPe5zh4SlFDPnNjA33EXTppO07zlAXdcQQarkRccqEALpIEN387O5qec2dna+lvqajiX53DWpenZ2vJr1zc/l0NDfc+/5O7kwdR8lFt1auNpcnHPVv56xA9cwc76HsJi+8seRIKQ4V8/YoV6mz26geftRWnceorZ1/PEn0l383KH3lsR65IreQ3uYHVx7ZSt6H/f5Lj6nrGduKHpOadvTR33XBYK0zymSVI0ssCSpGpSv+RYnmxg/uvPhd8UvZ7XEFX+tkNJcHRNHdjPTv4GWnYdo23mITMuEx6Qn1MUfSXvdLq7tfifP6n47rXWbl+VrNWbWcEPPe9na/jIeOP8ZHrzwOcbnTwBYZCVd+e/v7IW1jB3aw+SJrZTm65akAF+YbGHkgeuZOrWF1l0Hadl2jJqm6Uu/XlrMWF4lVXn+2cxAD2N9+5g6u5Fw4SpX9D7h5w8pLWSYOLqLmf71tOw4TOuuJyk6JUkVzQJLkipdAMXZOqZOb45OfxpaQ3jxXfGlLq8ufc3o8y5ONTHywPVMn9lEW29fdPpYvfOxkiQMoTGzll2dr+fGnvfT3XQDQZBe9q/bXr+DF275z+zo/EPu6f8wR0e+xczCsNsKE2xhvIXxo7uYOLqLhcnm6INL9RhycdvYaAdDdz+HyZPbaNvdR8O685QWapg6tXl5Cnc9QwFzI22MH9rD5IntLE43Lt9zy6WZi9czfXYTrbsP0rL1uPOxJKmKWGBJUqUKICxGc65G+/YxfXYj4WLN8hZXj8sQbfmZG1rDhV93MHVqC2179tPYc86hzTELw2hb35b2l3Jjz+1sa38Z6VTdimZIBTVsaHke3U3Xc2zkO9zdfwenx39MsTRvkZUU5W1hEye3XirAl7VIKm8bmx1Yx9xwF7Wt44TFNPMTLZZXSRLA4nQDE8d2Mn6ol/nxtpUpGINoRtrccBeDv3nupeeUpvVnCDI+p0hSpbPAkqRKEwAlmBvuZOzwHiaPb6M4u0Rzrq46U0hYTDF1ejOzg2tp3nKctt191HUOO7R5hYVEg9V7mp/N9eveR2/XG2nIdMWaqSbVwO6u17Oh9YUcuPAl7h/4BIPT95WzKhYBhItpps9H28Km+zcQLqxgAR6EhMU0c8Odl/6/EiCA0nyG6bMbGe27htkLa69u/tkzzhEVndNnNzI7tIbmzSdp232AujWDBD6nSFLFssCSpEoSXJxztYvxI7tYmGhN1rabIKQ4W8/YoT1Mn9tA665DtO44TE3zlBccKyAEWmu3cM3av+C67nfQ3rAz7kiP0pTp5uYN/4Zt7S/n/oFPsX/wC0zOnXU11kq6dNBDO2MH9zJ5YjvF2fr4CvCkPHZVu4Dyyri10cm1pzdRmq+N940RuDRzcfzwbqb719Oy/Qhtuw6RaXE+liRVIgssSaoEjzz96eBeZofWPHz6U9IuAMt5FiZaGbr3JqZOb6Ztz36aN50iVTfvBccyCEOor2lnZ+fruLHn/fQ030JqBeZcXa2uxr28eOt/ZWfHa7mn/yMcHf0W84sTFlnLLYjm1k0c3cnY4d3JK8C18sol0PxYG+OHdzFxbBeLU03Jem65OHNxspmRB69j+swmWnsP0LLlOOmGOZ9TJKmCWGBJ0mpW3uYzM7CO0b59zJzbQGkpT39a1uzRfKzZC93MjXYwdfIMbXsP0LD2vPOxlkhItD1vY8sLy3OuXk5tujnuWJclFWTY3PY7dDfdwLHRf+Lu/js4N/EriuGc2wqXWrkAnzqzidG+fcwNrl3+gx6UfAEUZ+qZOLGd8UO9zI0kfDvnxZmLw10M/uZ5TJ3aSvue/TT0nCOVWfQ5RZIqgAWWJK1G5XfF54Y7GTu4J/5tPs/oewkJF2uYPLmNmQvraN52lPbdfdS2j7oF5CpdnB21puFarl/3PvatfTONme64Y12VuppW9q55M5taX8xDF77I/QOfYHjmAOB8rGcsgLAUMNO/7tK2sHBxlRTgWj4BhIspps5uYqxvHzPnex6ec7UalOenTZ/ZVJ65eIK23gPUdw45c1GSVjkLLElabQJYmGhi4vhOxi9u84HVc3HxpN9XeT7WgWuYObeR1l0Hadl2lJqmaS84rkAItNRuZE/Xn3H9uvfQ2biHoAKqnuba9dyy4d+xvf2V3Hv+oxwa+gqT8/1uK3wG5kfaGTvcy+TxHSxON1pcVbvy/LPZwS7GDu5l6vSW1fvGCETzseZro/lY59bTuvMwrTsOk2mZiDuZJOkqWWBJ0mrxyDlXh/YyO/iIOVcVZn60naG7nsPU6fIR6RtPuQXkaYQh1NY0s6P9D7mx5zY2tr6QVFBZT/NBkGJt07X83vb/xq7O13FP/4c5PvodForTFlmXK4DidD3jx3cwfngP86Md5SV7/uWqWuWVrgsTTYwf6WXiyC4WJlvKv1YZ94vFyRaG77uRqTObadvdR/OW46TrnY8lSatNZb2ylaRKVN7OMXN+PaMH9zJ9bgPhaplzddXfc0gYBsz09zA33EnTxlO07dlP/ZpBgnTJi45HCIFUkGZjS5Ybez7Azs4/pDbdEnesZZUOMmxr/33WN9/CoeGvc2//nfRP/pISpQpYa7ZMAigt1DB9dhOjB/Yxe6H74W1h3mjVK4DibF35AJB9zA13VuYbI+XvZ25wDRdG25k6Fb050thzzpmLkrSKWGBJUlJdOs6+I5pzdXIbxZmGyi6uHncbhJQWMkwc28nMQA8t24/Suusgta1jcSeLXTTnKqCzfjfXrXs3+9a8lZa6TXHHWlF1NW1c2/0XbG79XR668HkeGPg0Y3NHLs0AE+U5VylmL3Qx1rePqdNbKM3XVtfjiB7v4gEg59cz2ld+Y2SxpvLvF+X5WFOnN5fnYx2ntbeP+o5h52NJ0ipggSVJSVO+8l6cbGL82K7ynKuW6j7OPghZnGpi5MFrmTqzkbbePlq2HiPdMFt1Fxxh+V+NmW72rHkzN6x7L2uarq2IOVdXq61+K8/f9B/Y0fEH3HP+Yxwa+gozC0PVva2w/L0vjLUydmQ3E0d3sTjVVPkFhZ5aJR0A8oxuh/LMxUN7mDq3kdadh8rzsSajX6+im0KSVhMLLElKkvJ2jqkz0elPs0OPmHNVTRcXT3jbRN///Egng7+9halTW6Ij0tefrZr5WGEItelmtrS9lJt6Psimtt+hJlUfd6xECIIU65qfzUsb/xu7O/6Iu/s/xKnxH7NQmqq+ai+A4kw9kye3MnZoL3Mjnc65EgCLU02MH93J+JHdLIxXyAEgV6v8fS9ORPOxpk9vpq33AE2bTzofS5ISygJLkpIggLAYzbka69vL1NmN1bGd42pcPCL97EZmh9bQvPkEbXsq+4j0MIRUkGJdy3O4secD7O78Y+pr2uKOlUiZVCM7Ol/N+tbnc3Dwq9x7/qMMTN1FGIaVvyKrvC1s+twGRvv2MtO/4eE5V6peAZTma5g6vZXRvr3MDq6tzDlXVysIIQyYHVzL3GgHjae2Rm+O9Jxz5qIkJYwFliQlwNxQZ3Sc/Ynt1Tfn6mpdPCL9yG6m+yv3iPQQaK/fybPW/gXP6v5L2uq3xh1pVWio6eSGnveytf2l3H/+0+wf/AJjc8crczVWAJRgdmgNYwf3MnVqS3VuC9OjBRAW08wOrGW0bx/T5zY6/+ypXJyPdWoLsxfW0rz1OG27+6jrGIYUFlmSlAAWWJIUl+Ax2znGyitqvLC4YouTLQzff0N0RHrvgeiI9Lr5VX3BEYbQkOlkV+cbuKHnVnqab67qOVdXq71+Jy/a8r+zs/M13NN/J0eGv87s4mhlrMZ6xLy8sSO7mTiyi4WJKt8WpktzruZH2xg7tIeJ4zsoTjdaXF2uIKQ428DYwaj0uzgfq6Z5alU/p0hSJbDAkqSVFkBprpbJ01sY69v76DlXujrlLSDREenPLx+R/hCN686vuiPSQ6AmqGVz+8u4sec2trX/vnOunqEgSLGh5fmsbbyeXZ2v557+D3N6/IcUw4XVWwlefBw5tTV6HBnu8nFE0Rsj0w1MHt/O2KG9zI+1VfcBIFerfHstjLcydO9NTJXnYzVvPklqlb85IkmrmQWWJK2Ui8eWD3Rf2s4RLmR8V3wpPXILSPmI9LbePuraRxI/HysEUqRZ23QdN6y7ld6uN9KYWRt3rIqSSTfS2/V6NrY8nwNDX+G+8x9laPohQkqrp8h61OPINUyf2+DjiKJCc6GG6TObGD24l9mBdQ/PP/N+cfUuzse60M38aAeTp7bQvucADd2r780RSaoEFliStELmhjsZO9TL5PHtFGedc7WsgpDiTANjB/dGW0B2HYy2gDRNJ/KCIwRaajdzzdq3c133O+lo2BV3pIrWVNvDzes/yPb2l3Pf+U+y/8IXmFw4m+wSq7wtbG64PC/vmI8j4uH5ZxeiOVdTp7c452o5BCGlxRqmTm5jdqCHlm3HaL04H0uStGIssCRpmYXFFONHdzPy0LUeW76SHrEFZPjeZzN9ZhNdN95Fw7rzJKnFCkizveMPeN7Gf8/6lueSDjJxR6oanQ17+J0t/wc7O17Db8/9d46OfJtSOB93rMcrz8ubOLaD8cO7mR93Xp4iC+MtjB3uZeLYThYnmy2ullsQUpyrY7RvL1PnNtDeu5/WXQdJZRbjTiZJVcECS5KW2eTJbQze9RxKc3VeWMQhCAlLAdPn11P81fPpedEPqescTUiHFbCz87W8dPv/oLVuc9xhqlI6VcvmthezpvEafnTir3hg4DNAKe5Yl4TFNJOntjDWt4+ZC93OudIl0/09DN51C3NDa5xzFYOFsTYG734Oxbk6Oq+7jyBdjDuSJFW8VNwBJKliBbA408Dowb0ULa9iFwQl5kc7GTu0l7AU/2axMITOhr28cPP/y/IqARoya3juxn/P2sbrCBPyV7W0mGH4gRsY+EWWmfM9lhSKBDA/3srgXbcwO1iek+f9YuUFIeFiDaN91zB5cmvcaSSpKlhgSdIyCQKYG17D/EgnQTKW+yiEmf71FGca4k5CEKTZ2fk61jZdH3cUlXU27GZb+ysJgmS8PJo6tZnR/c96eKaRBBAGTB7fztzQGgLvF/EKQkpzdYwf3VV+oyruQJJU2ZLxCk2SKlRxpqF88Rl3El1UWqhlcbop9p9JJlXP+ubnEcQdRI/S3Xwz6VT8c8hKizWMH91NaT5jeaWHBVCcq2PmQnlFnuIXhMwNd0WHKkiSlpUFliQtozB07VXihAFhGP/TXxCkqE03xx1Dj1GfbiNIwMujxekm5sfa4o6hBAqLaYqz9XHH0COUFmoSsTVdkipd/K/QJEmqWl7wJE20fTDmn0t5lU1Y9GWankAYEPt9VI/mj0OSVoSvjCRJkpLGkkKSJOlRLLAkSZIkSZKUaBZYkiRJkiRJSjQLLEnS5fHEK0mSJEkxqYk7gCQpwcIAUiVqGmZI1S5QnKmnOFcXfTzwfEVJT+Ni8e3jhR7rEaf0BuB9RJL0tCywJEmPFwYENYs0rOunZdtR6jqHSdUUKc5lmDm/nonj25kb6XRVlggJGZk5TCpI0V6/AweP65IwIFU3R03DNAuTLYSLNZYUioQB6YYZahqnAFicaqY4W+/9Q5L0lCywJEkPK6+squscom3PAZq3HCNdP08AhEAtUL9mkOatxxk/vJvxI7tYnGqO/qwXHlVnemGAhy58gXv7P04qqOGGnvexd82f0ZhZE3c0xam8crNhXT/tex+ifs0gkye3MHZwH/Njba7grGblN0eaNp6irbeP+jUDEAbMXOhh7OAeps9tsOiUJD0pCyxJUiQMqGmepGX7Edp2HSLTMl7+OJe2eVz8b6Zlgs4b7qFp4ylG+65h6vQmSvN1XnRUiYXiFMdHv8fd/XdwZvzHLIZzAPzoeI4jI9/m2T0fZEv7S8mkGuKOqhhk2kZp23WIlu1HqGmaBqB9734a159j7OAeJo7voDjT4ONFNSmXmvVrLtDWe4DmzSdJ1c1felJp2nSK+jUDTJ7cytjBvdEK31LK+4gk6VEssCSp2oUBqdr56B3xPftpWHsBUo9orZ7wz0AQlKjvvkB3R4HpM5sYPXANs4NrCYtpLzoqVCksMjB1L/f0f4hDw19ndmGYIHh402AxnOX4yD9zfvI39Ha9gRt7bmNt43UEgWfGVLwwIFU3S8u2Y7Tt7qOuc5hLSzfLattHWXPzr2nadIrRA/uYPrfR1TZVISDTMkHrzkO07DhMpmUyul888sceQrp+jrbdB2nsOcf4kd7yCt8m7x+SpEsssCSpWl3c5tN9nrY9+2nadJpUZuHxFxZP+TkgVbNI87bj1Hf3M3F0F+OHe5kfd5tQpRmfO8mDA5/n/oFPMD53jBAInmDcVRDAzOIg953/GCfHfsB13e/lmrV/Tkvdxri/BS2HMCBIF2lYf5b2Pftp7DlHUFN84seREIJUicYNZ6nrHGTy5LZotc1wl48Xlag8A61580na9uynvnPoqd8cKX880zpB5w13l1f47mXq9BZK87XePyRJFliSVK0yrWO07TpIy46j1DRNXVlx9Vgh1DTO0nHNAzRuOMPYwb1MntzmNqEKMLc4xpGRf+Se/v+b/snfUAwXCHjqUe0Xf21k9jCFU/8bR0e/xU09/4YdHa+iNt0S97ekJVTbOUR7bx/NW46Tbpi9vMeRENJ187T1Rqttxg7vZuLoLhanm+L+drQUwoAgvRi9ObJ3P03rzxJkFi//OebSCt8ButuHmd58ktG+a5i9kOAVvgmMJEmVyAJLkqpJ+R3xlq3HaOs98ITbfK7+cwMB1HWOsPaWX9K8+WS0TajfobyrUSkscnbiF9x97kMcHfkm88WpR20XvBwBUArnOT32EwYm72ZX5+u5qed21rc8122Fq1kYkG6cpnX7EVp391HbOn51jyNhtNqm68a7adp0mrED1zB1ejOlhYyPF6tReRVdbccIbbv7aNl2hHTD3NW/ORJCKnNxhe8AE0d3MHZ4DwvjrYlbsZdKlwgSlEeSKpUFliRVkfq1F+i87h4a158jqLmCd8SvxMVtQhvPUNc1yOTJ7Yw+dE20rVCrwsjMIe4f+AwPXfgcE/OnoxVXV9JcPUYQwEJpkv2Dn+f0+I951tp3cO26v6C9fmfc36quRBiQyizQuOE0bXujeXlBuviMV28GQUhD9wB17aNMndnEaN9e5ga7CYsO8V41woCaximatx2jbfdBattGyx9/qj8DpcUMQc0iwdNsLaxpmH54he+hPUye2J6cFb5hQG3baDSUXpK0rCywJKkahEG0HeN5P6euc2h5iqvHfc2LQ3kPUNs2zMAvssyPdiTjgkNPaGZxhIODX+He/o8wMH33xUV1S2p8/iS/OPP/5tjoP3Fjz230dv0xdTWWm4l28QS5rkHa9uynecsJUrVXOC/vab8GpDLztGw/SkN3P+NHdzN+qJeFyebErbbRI4QBQWaBpg2nadtzgIbufoL0U5RR5QeUhclmxo/sZG5oDZnWcdp2HqK2ffSpV/JdXOH7nF/RvOkUo337mD4X/wrfIF2iacsJahpm3EooScvMAkuSKl15u0/X9Xc/XF6t2NeO/tOwboD2ax7gwq9eEM0wUaIUS/OcHPshd/ffwcmx77FQmn7aOVdXK/qcIf2Tv+b7xz7IkZFvclPPbWxqezHpIBP3TaHHCqMT5Fp2HKZ15yEyzZPljy/X14Oapmk6n3UfjRtOM9YXzdMrzdfGfUvoscKATPMEndffQ/PWE6Rq55+61AygNFfL5KktjPbtY264i7CYJkiVmD6zmdbdB2nZdoSaxpmnXI318ArfC0wc38Hw/TdGq7Fi+P4JQpo2H6d1xyFsryRp+VlgSVIVaFzXT0PPuVhfXzdtOMt4xwgzF9Y6KyRBQkrcP/AZfnbqPzO1cH7ZiqvHCgJYLE1xaPhrnJv4Odkt/wfXrXsnwYp8dV2WMKC2fZS1t/ySxvVnlm5e3tN+XSAIqe8aou65v6B+zSBDd99McbbelVgJEqRKtPX20brrUPSBpyiuwmKKmQvrGDuwj6mzGwnLc86CVAmA+dF2hu66manTm2jf8xCNG86Sujj4/YmEkK6fp733IMWZRobvv2Flv/mLc+B2HKJ97/6HZ31JkpaVBZYkVbpUifq1Fy5dKMQihJqGKTJNE8wMdHsRmiBzi+M8OPApJufPk4qhOwqA8flzPHThr9mz5k+o85TCRGnoOUfjhjMrs+34sUII0kVadxxm/MguFmfrrTcTJKhZpH7duScvNssfnx9rY+zQHiaO7nx4btVjnwOCkLCUYubcBuaGumjecpK2Pfup7xyCJ5uPFUbb9+rXXCBVu0BpfgVWcJZPWGzccJb2fQ/S0H2eIF2yvJKkFWKBJUkVLgBStXMrt3riyaQgqF1w9VXCFMMFimG8w4ej0woXCMPFuG8OPUaQLsYd4VErdZQgQUgqvfCkv1ycqWfixHbGDu6J5h+W/8zTfc7SQi3jR3Yxc76H1p2HaNl5iEzT1BP//hCCmiJBqghh7bK/OVLbMUz7nv00bz1Bun42nmJXkqqYBZYkacU8k5PstDyCR/xbSi7vo6tJcbaOgV++gKnTW6K5h1dRLC1MtDB0341Mn9vAmlt+SX3XCs9wvCgMSNfP0rz9KO29B6ITFuN+Q0iSqpQFliRJkqSlEUSnDE73r7/q8ir6PCGEAbNDa5gfa48KrJUUBgTpIg09/bTvfYDGnn6CmqKrriQpRhZYkiRJkpZQKlpxuxRb+oIwhtW7AZm2Mdp7D9Cy/SjphhmLK0lKAAssSZIkSQoDUnVzNG85QfveB6nrGC2vBIs7mCQJLLAkSZIkVbPydsH6tRdo3/sgTRvPENQsuupKkhLGAkuSJElS9QmjvYk1LRO07T5I686D1DS6XVCSksoCS5IkSVJ1CQNStfM0bTpJ+96HoiHxKbcLSlKSWWBJkiRJqg5hAKkS9WsGo+2Cm0+SyrhdUJJWAwssSZIkSZUvDKhpmqJ15yFad/WRaZ4qfzzuYJKky2GBJUmSJKlyhQFBZoGmjaej7YJrBwjcLihJq44FliRJkqQlFYZBtF0veIYtUXnQ+lX/2SCkrmuI9j0P0bz1OKnaBbcLStIqZYElSZIkaWmEkK6dpbZljNn5tc/wkwVkmifItIw9+e8IwicuycKAdMM0rTuO0La7j0zr+KV8kqTVyQJLkiRJ0pLJtE6w7kU/ZuzQHiaO7qI403BlK7HKJwQ2bzlB+56HqOscesLiKQRqmiZI18+yONVMQIkQSKWLNG44S/veB2hY10+QdrugJFUCCyxJkiRJS6q2bZw1N91F88bTjPbtY/rsRkoLmacussKAIF2kvvs87Xv307j+LKnMwpOXTyFkmiZp3/sQYwf2UVqoJV0/Q8uOw7RsPU66YdbtgpJUQSywJEmSJC2tEIJUkYb156jrHGTy1FbG+vYxO9wFpdSji6zyrKratlFaew/Ssu0wNY2XWT4F0LbzIE3rT1OcayDdMEVNwywEl/FnJUmrigWWJElVLwlXeUnIoCeSjB4g/gR6jDCgOF9/Gb8PUrULtO48TMO6fsaP7Gb8yC4WJ1su/ZZ0wwzNW4/R3ttHbftoVG5dyY88gJrmaWqapx/+c95lJKniWGBJklTFMukmWmo308/dseZord1CTaox7ptDj1GcbqC0mCaoKcZTCARQnGmgOFfHMziLTsugtJhh+sxmGtadJ0hdXuGUaZmk6/p7aNp4mtG+vcwO9FDbPkzbngM09pwjSJeufsufhZUkVTwLLEmSqlgm1cgLNv9nAI6P/guLpVmCFWoKwhAy6Qa2t/8Bz9v0H6lJ1cV9c+iRgpCpM5sZuvdG2vb0kWmejD6+EkVBednX3FAXww9cx/xY+5UNAdfyC2H8yG6CmgXadh2m5nLuHyEQhNSvvcC6jmFKxRpSqSJBZtFZVZKkp2WBJUlSletpvplX7foUB4e+xr3nP8qFqXsoUVy2FS8hkCLNuuabubHn/ezuej31NR1x3wx6AqWFDCMPXcfM+Q209R6gefMJUnXzy140LE42MX50F+NHdrEw0YbNRjIV5+oYuf9Gps9uoq23j6bNJ0nXzT39jyuEIF0knS5e+v+SJD0dCyxJkkRDposbet7LlraXcv/AJ3nwwmeZnDsLAUtWZIXlf7XWbeZZ3e/guu530Va/Le5vXU8nDJi9sJa50Q6mTm+ife9+6teeJ0hf4ZyipxNAaaGGqVNbGO3bx+zg2scP+1bihGHA7IVu5kY6aTy5hfY9B2h45HZASZKWiAWWJEm6pKNhJ9kt/4UdHa/m7nMf5tjot5krjj/jEisMoa6mnZ0dr+Wm9R+gp/kWUoEvQ1aNICRcTDN5YjuzF7pp2X6U1t0HqW0dW4LPDWEpxezAWsb69jF1ZhOl+dqouLK8Wh2CkLCYZurUVmYHu2necpy23X3UdYzAZc7HkiTp6fjKUZIkPUo6yLCp9UV0N93A4eFvcve5D9E/9WtKpcUrno8VhpBOZVjf8jxuWv9v2NHxamrTzXF/i7paQcjidBMjD13L1NmNtPUeoGXbUdL1V7GtsDznamG8mbHDe5g4upPFqWaLq9UsCCnONDB2cC/T5zbSuvMQrTsOUdM0HXcySVIFsMCSJElPqDbdwjVr38rm1hfzwMDneGDgU4zOHQGeflthWP49HQ29XNf9Hp7V/ec0126I+1vSUiiXS/MjnQz+9rlMnd5C+96HolPkLve0wiCanzR5citjfXuZG+mCUmBxVQnKP8OF8VaG7r2JqdObaevdT/PmUysyP02SVLkssCRJ0lNqqdvE8zf9e7Z3vJJ7+j/M4eF/YGZh+ElXY4UhNGbWsLvrjdzQ8wG6G68jCFJxfxtaauVtY9NnNjE3tIbmrcdp691PXfvok28bCyBcTDMz0M3ogWcxfW4D4WKNq64qURCW56d1MzfaweSps9F8rO7+yy86JUl6BAssSZL0tIIgRU/zzfz+jjvY2flH3H3u/+b0+E8oluYvFVlhCDWpOja1vYRnr/+3bG1/GTWpurija7kFIcXZesYO7mH63HradvfRsuMoNY3TD5cU5e2C8yMdjB3qZeL4DoozDRZX1SAICRdrmDq5ldmBdTRvPUZbbx91HcOX7heSJF0OCyxJknTZalL17O58HRuan8/+wb/l/vMfZ2jmQQDWNl3HDetuZc+aP6UxszbuqFpJl7aNtTF0z81MndlC254Hadp4llRmgcXpBiaOb2f80B7mx9of9WdUJYKQ4lxdeT7WBlp3HqZ1x2FqmqbiTiZJWiUssCRJ0hVrql3Hczb8T2xrfzkPDHyKgBquW/dOOhv2xB1NcQpCwlKKmf4e5oY7ad58gvq1F5g8uYXp/g1QSllcKSo6L83HOkDzlhOkahdcjSVJekoWWJIk6aqtabyG39n6/yEAUkEm7jhKiiCktJBh/OguJk5sd86VHu0R87HmRzuYPLWV9j37aeg+73wsSdKTssCSJEnPSNriSk8hLKYtrvTEgpDSxflYF7qjgwB291HXPvLkBwFIkqqWBZYkSZKk+AQhxZkGxvr2Mn12I627+mjdfpSa5vJ8LIssSRIWWJIkSZLidukggFaG77mZqVNbaNvTR/Omk6Tq5i2xJEkWWJKkFeQFiCTpqQQhYRgwe2Edc6OdTJ3cStveh6L5WOmSzyOSVMUssCSp0gUhqZqFuFNEUWoWIYg7RXKElOKOoMcolhbwCllKgCAkXKxh8uRWZi6sfcR8rFHnY0lSlbLAkqQKl6qdI9M8HncMAOo6hglSRcJSKu4osSuGC0zNnYs7hh5jfO4kpXAx7hjl7VReoSdPAn4mqRJBOgH30ZUShBRnGhnr21eej3WI1h1HqGmaSsSPQ5K0cryCkKQK17z5FJnWyUS80G9cf4a6ziEIXYa1WJrj9MSPKIbzcUdR2XxxkhNj3ymvwopRCOm62Wi7lBIjyCyQysRcHIWQrp2ntm0k7ptjZV2aj9XG8D3P5tyPf4/xIzspzde6qleSqogFliRVqjCgobuf9mvuJ5VJwBbCEGoap+m8/l4yLROWWIQcG/1nTo39MO4gItrOeWDwS5wc+0EiLogzjVNR2atkCANqmyeobRknjPnNgKBmkebNJ0nXz1bf4+jF+VgD3Vz45Qvp/9mLmD67gbCYTsTfW0nS8rLAkqRKEwYEqRLNW47T/dyfU9s2nojVVxc1bTzN2lt+QV3X4KW81SgAJufP8pMT/yunxn5MGLraJi6lcJGDg1/l56f+C3PF8URcBweZIm29B0g3zlTt35FECUKatx4n05KAx9MQGjecoa13fzRXsBrvH0FIabGGqZPb6P/p73Lht7cwN9JR/rW4w0mSlks67gCStNxe8W6eA7xmpb9uEMDs0BqmTm8hWKkX1EFIXdcQndffQ8e1D5BpScbWwceqbR2ncf1ZUpkFFqeaKC3UrdQNRCqzQPO242SapuK+GQiAqYWznBz7PrPFMVrrtlJf0xF3rKoyMnOY35z9b/zyzH9lcuFcoq59M03TpDMLzA6tJVzIeGEehzAgSJdo3XGEzmclZDUrEAQh9V2DpBtmWZxupjhbH3ekmG4ICBdrmBtay3T/esLFGjJNU6Rqk/FzWkHHgL/+7qeS+IwvSUvHAktSxav4AisMgICa5kna9+5nzU130bjhHKmaxUSWVxel6+dpXHeO+u4BCAMWploIF2uW+SI9WQXWRXPFcc6O/4Qz4z8lCNK01W+nJtUQd6yKNrMwxIMX/pofn/grDg1/lfnSVOL6oSAIqesYprZ1nMXpRhZnGiFMWWSthDCAAGrbx+i87l46rnmAdMNs3KkeJUiXqF8zSGPPOVLpIguTLYQL1TsTqjTbwPT59cwOdhOkSmSaJwlqqmZlqwWWpKrgKYSStJqFAen6WZo2n6Stdz91nSMEqVKii6uHswMB1K8dpLb9FzRtOclY315mzveUi6zV8E0sjYBoBlP/5G8ZOvY/cXj4G9zY8362tP0eNakqXVmxTBaK05wc+wF393+Y0+M/YqE0TVQBJ9PF7cD1XRcYP7aT8SO7WRhvjTtWZQsDahqnad52lLbdfdS2jZU/HnewJ1bbPkbXTXfRtPkUo317mT6zqTzcPKGBl0sQQhgwO7CO+ZFOpk5tpa13Pw3d56Miq8puDkmqRBZYkrQahQFBzSIN6/pp33OAxvVnCGqK0Qv01fYiPYRUeShxw9oBJk9sYezgPuZGO6CUqqqLsCCAxdIUR4a/wdmJn9Hb9SZu7Hk/axuvJQhcNP1MlMIiA1P3cm//nRwa/iozC8MEQXKLq8eqaZ6i89r7aNpwmrHDe5g8vj3aNlZFfz+WXRiQyszTuPEM7Xv2U792IDoJMuk3cQhBqkjDun7qOgaZOrOZsYP7mL2wtjzcPOnfwBIrz8eaPLGNmYF1tGw9RltvH7Vto5AKk//zlCQ9KV8NS6p4FbWFsLytpW7NEJ3X3kvn9fdS1zVMUCEXKKnMIvVdQ+X5WEUWppopzdcBS9U0JHML4eNSBrBQmmZg6jccH/seC6VpWuu2UVfTFne0VWls7gR3n/sQPz35nzgx/n0WSzMrN5duidU0ztDYc466riFKC7UsTjVDyRPYnpEwgFRI/doBum68m45n3U9t2/iqfFwN0iXqOkZp3HCGdP1MNB9rrv7Sc0dVCSBcyDA7tIbp/uikwkzTZKXOx3ILoaSqYIElqeJVUoGVaZmkfe9DrLnxLho3nCVVU1zpb2tFpOvnaVjXT0P3AIQpFqebCBeXYoj16iiwoqSR2cVhzoz/iLPjPyMV1NFat8VthZdpdnGEA4Nf4scn/ooDQ3/DzOJworcLXq4gFVLbOkHj+rPUtoyzONNIcbbB+VhXKdM2Tsc1D7Lmxrtp6C6vulrlUpkFGtZeoGHdOYJ0iYWp5uqcj1X+fkuz9cwMrGdmcC2pVJFM01S0arlyWGBJqgpuIZSkpAsDUrVzNG89QdvuPuq7Bit/G0RYPmVr7QXqOoaZ3ryR0b69zJxfX3VbYgKgFC5yZuLnDEzfx+HhV3HT+g+ysTVLOsjEHS+RiqV5To3/hLv7P8SJ0X9hoTi9qrYLXpYQ0vWztO4+REPPWcaP9DJ+ZBeLky3Rr1fR35GrUp4f2Lz1KG29B6nrGL44jK6i1HWMsubZv6Fp80nG+vYxdWZT+UTLCvtGn04QEpYCZs/3cH64i6aNp+m89j7qOofiTiZJugIWWJKUVI+Yc9W2Z3900lRmcXXOubrq2wCCdJGmLSepXzvA5MltjB3aw9xIR/n0xepxcT7WweGvcnaiwJ41f8b1695NV+OzCCqrmrlqYVhicPoB7j3/cQ4O/R1TC+ejFVeVevOUHwcyLVN0XX8PTRtPMXZwL1Ontzgf68mEAUFmgcaec7Tv2U/Duv7VOz/wsr7f6CCAxp5+6juGmTq7ibG+vcwOVu98rHCxhsnj2wmLNax74U9I189W5s9ekiqQBZYkJU0YQBBS1zVE2+4+mrceI10/V7kXWJd1m0C6YZa23gM0rj/L+JFdjB/ZzeJUU/TrVXQRFgCTC/3cde6/c3z0O1zX/R72rX0rzbU9cUeL1eT8WR668EXuP/8JRmb7Lh5yWR1CIAipXztIXcfPmCqvtpk531OdJcUTCQNIlajrGqK9dz/NW06Sqquix9UQUnXztGw/SkN3PxPHdjJ2uDc60bL8nFNVgpCZgW4WZxqiAkuStCpYYElSkoQBNS0TtGw/QtvOQ2RaJsofjztYAlxcbdI6TucN99C06RRjfXuZPL2F0lxdVV2AXSxmhmb285OT/5EjI9/kxp4PsKPjD6hNt8Qdb0XNLY5zdOTb3NN/J+cmf0ExnK+IOVdXJYyGeDdviU70nDixnfFDvcyNdFZnSfEImZYJWnYcpnXnQTLNU5dur6pS/n5rmqbpeNYDNG08zdjBXiZObKc401hd948wIJVeJAhW/7wzSaomFliSlARhQKpujubNJ2jr7aO+6wKkqL4LrMsRQhCUovlY7SM0bTkRrTYZWEe4WFNVF2HRfKw5To39kIGpu9jR8Rpu7LmN9S3Prfj5WMXSPOcmfsnd/XdwbPQfmVucqLw5V1erPB+rfc/+aMXi4V1MHN3F4nRTVf39iB5XZ2nefJK2PQeo7xyq/PmBl3W7RP+q7RhhzXN+Hc3HOriPqbMbq2M+VhiQqp2ndfdBMs2T3h8kaRWxwJKkOIUBQbpIQ8852noP0LThTGXPY1lKIQQ1i9Fqk+7zTBzfzvihPVW52iQIYK44zv7BL3Jq/Edcs+ZtXLfu3XQ27I472rIYnu7jvoFPsv/CF5hcOFvZc66eodq2MbpuuoumTacvzccqzVd4SXHxcXXdOdr3RiWej6tP4OJ8rA3nqO8aZPL0FsYO7mN2cA2UUpV3HylvI63vPk/b7j5athwnSFfUSYSSVPEssCQpFgEEJeo6hmnrPUDzlpOkG2a8wLoaIaTr5mjfc3E+Vi8Tx3awONlceRdgT+FifzM5f4bfnM1zbPQfuX7d+9nT9SaaarvjjrckpubPc2Dwy9x//mMMzjxISOiKq6dTPtGzYd156jpGyvOx9jJ7obsy52MFIXUdI7Tu7qNl6zHSDbM+rj6dEFK1C7TuPELjun7Gj+1k/PBuFiZa4062dAKo6ximdechmrceo6ZxOu5EkqSrYIElScsoXTtPKl0kLKWiD5RPzqtpmqR155FoHkvLREUe3x6H2rZx1tz4W5o3nWDs4F4mT22lNF/7qIv0IFUknZmLO+qyie5KJS5M3c8Pj/87jgx/nZvWf5Bt7b9PTaoh7nhXZaE0zfGR73J3/4c4Pf5jiqV5twteqRBSmXlath27NMR7/FAv8+Ntq3/F4qXH1Slath+mdfchalvGfVy9UiHUNE/Ree19l060nDyxffWeaBlGDxKZpgladhylZcdhalvHvF9I0ipmgSVJyyQMoX7NAA0955g+uxHCgHT9LE0bT9G25wB1XUMEqZKrA5bSxdPYui9Q2zFC0+YTjB2M5mOVFjOk0os0bjgTlYYVfpsHAZTCeY6P/Qv9U79hd8fruaHnfaxrfg6pIB13vMtSChfpn/wN9/TfyZGRbzC7MBIVVzZXVy+EmoYZOq55kKYNZxg91BuVFNOrdIh3eZ5R06ZTtPXup37NIEHax9WrVr7N6jpHWPucX9G85SSjfXuZPrdhdc3HCgPSjdPRXMldB6nrHAGfbyVp1fMloKSKly9wK3BnXF9/YbyNmYFuSotpalvHaeg+T5Ap+iJ6JQRQnGlg5vw6FqfrSTfM0dhzruqOTb94V2ur28Y1a/+C67rfSVv9trhjPaXR2aPcP/AZHhr4HOPzJwBftCy5AMJiwMz5ntU3xLs856p+7QBte/bTtPEMqcyCj6tLLYDiXC1TpzYz1ncNs8NdyZ6PVS40Gzeepm13Hw3d/QTpqhjc/33gFbksHqsoqaK5AkuSllmmbYzatrFocRDRyqwqeDGdDCGk62do2Xb80bd/lblY/IzNHeeXp/8rx0b+kRt6bmV35xtoyHTGHe9RZhaGODj0Ne49/1EuTN1DiaLF1XIJIUiF5SHeQ+Uh3nuYHVyb3JKivN2xtn2U1l0Had1+mHSjc66WTRhthW/ddYSGnvNMHNnJ+NHdLEy0JGvraRgQ1BRpWNdP2+4+GtefIVW74P1CkiqMBZYkLbdHvPnr6+h4XCytqv32j0a/FOmf/A1Dxx7i8PDXubHng2xuezGZmOdjLZRmODX2Q+4+dwenxn/AQmkmOl0w7hutGoSQqp2ndefh8nysHYwf6Y1KiiQpbwtr2XqMtt191LaPOs9opYSQaZ6k87ryfKzDe5k8sS3++VhhQJAqUbdmkNbdfTRvOuWBKJJUwSywJEmqMkEAi6Vpjgx/i7MTP6e360+5sedW1jZdT7DClVFIyMDkvdx7/k4ODn2FmYUhB7THJYRMyySd191P08bTjB3cx8SJbZTm6uIvKTILNG04TdueA9E2bOdcrbzyjMG6NcOsbf9FNGOwb180H2uxZmXvI49Yidey4xCt249Q0zz9cE5JUkWywJIkqUoFAcwuDnHf+Y9wcuy7XNv9Lq5Z++e01m1Zka8/PneShwY+zwMXPsXo7JFLmRSjMPpXXdcwa2/55cMlRf/6WEqKIF2irusCbb37ad50ilTdvMVV3EII0iWaNp6hvmuQyVNbGTu4h7kVnI9V0zxJy7boZMG69tFLuSRJlc0CS5IkMTJzmMKp/40jw9/kxvW3s6vjtdTVtC7L15pbHOPw8De5p/8O+id/TSksWlwlTQhBepGmTaepXzPA5MntD5cUyz37qPz5M63jtO48SOvOI9Q0TV3KpYQIIV0/R9uugzT2nGX86C7Gj+xmcbLl0mqtpf16Aam6OZq3nKBtdx/1XYOQqooB7ZKkMgssSZJEEEAYFjk7+XMGj9zP4favc2PP+9nU+iLSqdol+RrF0jynx3/CPf0f4fjod5gvTkbbBS2vkiuEdN18NBi75yzjR3YzfnRnVFIsR4kVBqTrZ2jeeoK23Qeo6xixpEiy8s8l0zJJ13X3lree7mXq1Jalm48VBqQyCzSuP0Nbb1/5JN9FV+JJUhWywJIkSZcEwEJpkoPDf8eZiZ+wt+vNXN/zProa9hIEqav6nCElhqYPcG//x+gb+hJT8/0WV6tQpnWCrhvuioZ4H9rL5MmtlOZrl6ykCGoWaew5R9ue/TT2nCOoKVpSrBblFVf1awapa/8505uPM3rwGmb6e65+62kYEKSL1K8doK33AE0bT3uyoCRVOQssSZL0OAEwtdDPXf3/g+Nj3+W67nezb+1baK5df0WfZ3L+HPsHv8j95z/J8MwBQkKLq9UqBAKo775AbccITZtOMta3j5mBdYTF9FWXFKRC6joHaes9QPPW46Sdc7V6hRCkizRtPk392gtMntzG2MG9zI10Qukyt56GAaRK1HUO07rrIC1bj5FumPU+IUmywJIkSU8s6plChmYe4icn/wNHRr7BjT23s73jldSln3o+1lxxnGMj3+Ge/js4O/FziuE8AZ4uWBFCSNUs0rz1BPVrB5g8sY2xQ3uYH+24wk8UkGmZoGX7EVp3HiLTMnHp82uVCyFdN/fw1tOjuxk/spPFqRae7gecaR2jdccRWrYf8T4hSXoUCyxJkvSUAqAUznNq7Eecn7qLnR1/xE09t7G+5RZSQeZRv7cULnB24tfc038HR0a+yfziRLRdMO5vQksvhJrGGdr37qdxw1nGD+1h/NgOitONT73SJgxI1c7TtOU47b0O4650mdYJuq6/m6aNJxk7uJfJU1spzdURhg8/MARBiXTDDC1bj9K661B0sqD3CUnSY1hgSZKkyxIEsFCc4MDgFzg9/kN2dryere0vpSmzDgiZmj/PibEfcGTk60zMn4lWXNlcVbZywVDbNkbXTb+ladNJRvv2Mn120+PnY5VnGjWs66dtzwEa158h5TDuyndxPtbaQWrbf0Hz1uNMntzGwngLYSlNKjNPXdcwTZtOUN81RJAueZ+QJD0hCyxJknTFJubPcM/5O7jv/EeoSTUAsFiaoUQJcMVV1QkhSBVp6OmnrnOQqTObmTy5jbnhLkrzGYKaIrVtYzRvOk7z1pOkG2YsKapNeetp06bTNG08TWkxTVhMkcosEqTC6EHD+4Qk6SlYYEmSpCt2saAKKbFQmnrcx1WlQkhlFmnZfoymTacpzWcgTEEQkqpZIFU7f+n3qUqVf/apmiLUFB/3cUmSnowFliRJkpZWSFRYZRYe9TFJkqSrZYElSZKk5WFpJUmSlkgq7gCSJEmSJEnSU7HAkiRJkiRJUqJZYEmSJEmSJCnRLLAkSZIkSZKUaBZYkiRJkiRJSjQLLEmSJEmSJCWaBZYkSZIkSZISzQJLkiRJkiRJiWaBJUmSJEmSpESzwJIkSZIkSVKiWWBJkiRJkiQp0SywJEmSJEmSlGgWWJIkSZIkSUo0CyxJkiRJkiQlmgWWJEmSJEmSEs0CS5IkSZIkSYlmgSVJkiRJkqREs8CSJEmSJElSollgSZIkSZIkKdEssCRJkiRJkpRoFliSJEmSJElKNAssSZIkSZIkJZoFliRJkiRJkhLNAkuSJEmSJEmJZoElSZIkSZKkRLPAkiRJkiRJUqJZYEmSJEmSJCnRLLAkSZIkSZKUaBZYkiRJkiRJSjQLLEmSJEmSJCWaBZYkSZIkSZISzQJLkiRJkiRJiWaBJUmSJEmSpESzwJIkSZIkSVKiWWBJkiRJkiQp0SywJEmSJEmSlGgWWJIkSZIkSUo0CyxJkiRJkiQlmgWWJEmSJEmSEs0CS5IkSZIkSYlmgSVJkiRJkqREs8CSJEmSJElSollgSZIkSZIkKdEssCRJkiRJkpRoFliSJEmSJElKNAssSZIkSZIkJZoFliRJkiRJkhLNAkuSJEmSJEmJZoElSZIkSZKkRLPAkiRJkiRJUqJZYEmSJEmSJCnRLLAkSZIkSZKUaBZYkiRJkiRJSjQLLEmSJEmSJCWaBZYkSZIkSZISzQJLkiRJkiRJiWaBJUmSJEmSpESzwJIkSZIkSVKiWWBJkiRJkiQp0SywJEmSJEmSlGgWWJIkSZIkSUo0CyxJkiRJkiQlmgWWJEmSJEmSEs0CS5IkSZIkSYlmgSVJkiRJkqREs8CSJEmSJElSollgSZIkSZIkKdEssCRJkiRJkpRoFliSJEmSJElKNAssSZIkSZIkJZoFliRJkiRJkhLNAktSNViIO4AkSdIymYs7gCStBAssSdVgBpiPO4QkSdIyGAPCuENI0nKzwJJUDYaBybhDSJIkLYNzWGBJqgIWWJKqwSDRu5OSJEmVpAgcy2XjjiFJy88CS1I1OA0MxR1CkiRpiS0C++MOIUkrwQJLUjUYBE7EHUKSJGmJncbXOJKqhAWWpIqXy1IEfgOU4s4iSZK0hO4GBuIOIUkrwQJLUrX4JTAddwhJkqQlsgD8HJiIO4gkrQQLLEnVog94MO4QkiRJS+Qc8K+5rCcQSqoOFliSqsUA8CM8ZlqSJFWGAr45J6mKWGBJqgq5LIvAd4gGukuSJK1mk8CXgPm4g0jSSrHAklRNfln+R5IkaTX7V+DHuWzcMSRp5VhgSaomU8AXgJm4g0iSJF2lUeDTuSwjcQeRpJVkgSWpapTfpfw+8JO4s0iSJF2lbwL/EncISVppFliSqs0F4OPAeNxBJEmSrtBh4H/kskzFHUSSVpoFlqSqUl6F9R3g63gioSRJWj2mgf8B3BV3EEmKgwWWpKqTyzIB/HeidzElSZKSLgT+DvhcLksp7jCSFAcLLEnV6h4gD0zEHUSSJOlp/BT4r7ksY3EHkaS4WGBJqkrldy+/CHwWKMadR5Ik6Un0Af8xl+VQ3EEkKU4WWJKqVnkA6v9JdJqPJElS0pwE/gr4WdxBJCluFliSqlouyzngPwDfjzuLJEnSI5wD/hPwTedeSZIFliSRy3IA+LfAv8SdRZIkCThDtPLqi5ZXkhSxwJIkIJflIeCDRCf8zMedR5IkVa1DwP8M/I3llSQ9LIg7gCQlSb5AN/DvgPcBnXHnkSRJVeUu4K9yWb4XdxBJShpXYEnSI+SyDAD/BXgvUAAW484kSZIq3iLwLeDdYHklSU/EFViS9CTyBbYAbwbeBezBx0xJkrT0hoHPAP+/XJazcYeRpKTyYkySnkK+QArYB7yHqMxaH3cmSZJUEWaBfwXuAL6fyzIbdyBJSjILLEm6DPkCtcCLgNuBVwDNcWeSJEmrUhG4H7gT+Pvy+AJJ0tOwwJKkK5Av0Aq8DrgNuAVIx51JkiStGqeAzwOfymU5HHcYSVpNLLAk6SqU52O9HXgHsCvuPJIkKdFGgW8DHwZ+ncuyEHcgSVptLLAk6SrlCwTAjcD7gTcCXXFnkiRJibII/JRoztU/5rJMxx1IklYrCyxJeobyBRqBlxBtK3wp0BB3JkmSFLsHgU8Cf5vLci7uMJK02llgSdISyRdYA7yBaEXW9TgfS5KkanQe+Bvgk7ksD8QdRpIqhQWWJC2xfIEdwLuIZmRtiTuPJElaEVPAPxPNufppLst83IEkqZJYYEnSMsgXqCE6pfADwGuAjrgzSZKkZbEA/JaouPpWLstI3IEkqRJZYEnSMirPx3oV8EHgRUAm7kySJGnJHAE+A3w2l+VU3GEkqZJZYEnSCsgX6AHeDLwHeBY+/kqStJoNAn8P3Ancm8tSjDuQJFU6L6AkaQXlC+wjKrHeCvTEnUeSJF2ROeAHwB3A93JZ5uIOJEnVwgJLklZYvkAt8ELgNqLthS1xZ5IkSU8pBO4GPgZ8NZdlMO5AklRtLLAkKSb5Am1EA95vIxr47nwsSZKS5xTwOaI5V4fiDiNJ1coCS5Jili+wEXg78C5gd9x5JEkSAOPAN4hOF/yVc64kKV4WWJKUAPkCKeB64FbgDUB33JkkSapSc8DPiOZcfTeXZTzuQJIkCyxJSpTyfKyXArcDLwMa4s4kSVIVeQj4BPA3uSz9cYeRJD3MAkuSEihfoJNoJdatwLOBVNyZJEmqYOeALwMfB/bnspTiDiRJejQLLElKsHyBHcBflv/ZGnceSZIqzDTwT0Rzrn6Sy7IQdyBJ0hOzwJKkhMsXqAFuBt4PvA7oiDuTJEmrXAn4BXAn8I1clrG4A0mSnpoFliStEvkCTcDLieZjvQiojzuTJEmr0BHgU8AXcllOxB1GknR5LLAkaZXJF1gL/BnwPuDauPNIkrRKDAFfBT4K3J3LEsYdSJJ0+SywJGkVyhcIgD3Au4G3ABvjziRJUkJNAz8E7gB+mMsyHXcgSdKVs8CSpFWsPB/rhUTbCl8NNMedSZKkhCgB9xKtuPpKLstQ3IEkSVfPAkuSKkC+QAvwGuADwAuAmrgzSZIUoxPAF4BPA4dz2bjjSJKeKQssSaog+QKbgLcSbS3cjY/zkqTqMgZ8g+h0wV/mshTjDiRJWhpe2EhShckXSBENd38f8CdAd9yZJElaZovAj4EPA/+cyzIVdyBJ0tKywJKkCpUvUA+8mGg+1ktxPpYkqfKEwH7g48CXc1nOxh1IkrQ8LLAkqcLlC7QDf0w0H+tmIBV3JkmSlsB54G+IyquHnHMlSZXNAkuSqkS+wDbgHcDbgR1x55Ek6SpNAP8C3AH8PJdlNu5AkqTlZ4ElSVWkPB/rZqLVWK8HOuLOJEnSZVoEfg18BPhGLstY3IEkSSvHAkuSqlC+QAPwcuA24CVAXdyZJEl6CoeAzwKfy2U5FXcYSdLKs8CSpCqWL9ANvAm4lejkQudjSZKSZAj4CvAx4O5cljDuQJKkeFhgSVKVyxcA6AXeBbwN2Bh3JklS1ZsDvkc05+oHuSxzcQeSJMXLAkuSBEC+QC3wXKJthX8AtMedSZJUdYrAvcBHgb/PZbkQdyBJUjJYYEmSHiVfoBn4Q6Ii64VATdyZJElV4RTwOeDTuSxH4g4jSUoWCyxJ0hPKF9gAvJVoa+G+uPNIkirWCPAtotMFf5PLshB3IElS8lhgSZKeVHk+1nXAe4E/BdbFnUmSVDHmgZ8CHwb+OZdlKu5AkqTkssCSJD2t8nysFxNtK3wl0Bh3JknSqvYg8Engi7ks5+MOI0lKPgssSdJlyxfoBF4LfAB4NpCJO5MkaVU5B/wtUXn1YC4bdxxJ0mphgSVJumL5AluAvwTeCWyPO48kKfGmgX8k2i74k1yWxbgDSZJWFwssSdJVyReoAW4A3g+8HlgTdyZJUuIsAL8mGtD+rVyW0bgDSZJWJwssSdIzki9QD/w+8EHgd4H6uDNJkhLhCPAp4PO5LCfjDiNJWt0ssCRJSyJfYA3wJ0QnFt6IzzGSVK0uAF8DPgrcl8tSjDuQJGn18+JCkrSk8gV2E83GehuwOe48kqQVMwP8gGjO1Q9yWWbjDiRJqhwWWJKkJVeej/VcotMK/whojTuTJGlZ/Rb4GPCVXJbhuMNIkiqPBZYkadnkC7QArwRuB14A1MWdSZK0pE4CnwM+m8tyOO4wkqTKZYElSVp2+QI9wFuI5mPtizuPJOkZGwf+AbgT+GUuSynuQJKkymaBJUlaEfkCKaLy6r3AnwLr484kSbpic0ABuAP4bi7LRNyBJEnVwQJLkrSi8gUywO8QbSt8JdAUdyZJ0tMKgf3Ax4Ev5bKcizuQJKm6WGBJkmKRL9AKvA54P/A8IB13JknSEzoLfImovDqQyxLGHUiSVH0ssCRJscoX2AK8HXgHsCvuPJKkSyaBfwI+AhRyWebjDiRJql4WWJKk2JXnY90IvA94E9AVdyZJqmIl4BdExdXXnXMlSUoCCyxJUmLkCzQCLyGaj/USoDHuTJJUZQ4Bnwa+kMtyMu4wkiRdZIElSUqcfIEu4I1E87FuAFJxZ5KkCjcMfBn4GHB3Lht3HEmSHs0CS5KUSPkCADuBdwF/DmyNO5MkVaAZ4AfAHcAPc1lm4g4kSdITscCSJCVavkAaeC7wAeC1QHvcmSSpAhSBe4E7gb/PZRmMO5AkSU/FAkuStCqU52O9CrgNeDGQiTuTJK1SJ4DPA5/KZTkadxhJki6HBZYkaVXJF+gB3gy8B7gG52NJ0uUaBb5BtOrq17ksi3EHkiTpcllgSZJWnfJ8rH1EJdZbgZ64M0lSgi0CPwI+DPxzLst03IEkSbpSFliSpFUrX6AOeAFwO/AKoDXuTJKUICHwIPBx4O9yWc7FHUiSpKtlgSVJWvXyBVqJBrzfRjTwvSbuTJIUs37gi8Anc1keijuMJEnPlAWWJKli5AtsAt4OvAPojTuPJMVgAvgOcAfws1yW+bgDSZK0FCywJEkVJV8gAG4E3ge8EVgbdyZJWgELwK+J5lx9O5dlNO5AkiQtJQssSVJFyheoBV5KtK3w5UB93JkkaZkcAj4N/HUuy+m4w0iStBwssCRJFS1foAv4Y+BW4CYgHXcmSVoiF4CvAh8D7s1lKcUdSJKk5WKBJUmqCvkCO4C/JJqPtSXuPJL0DMwB3yXaLvh951xJkqqBBZYkqWrkC9QANwMfIDq1sDPuTJJ0BUrA3cCdwD/ksgzGHUiSpJVigSVJqjr5Ao3AK4Dbgd8B6uLOJElP4yTwWeBzuSyH4w4jSdJKs8CSJFWtfIG1wJ8B7wWuizuPJD2BUeAbRNsFf5vLshh3IEmS4mCBJUmqavkCAPuAdwFvATbGnUmSgFmgANwBfDeXZTLuQJIkxckCS5IkIF8gDWSB24DXAE1xZ5JUtR4APgH8TS7LQNxhJElKAgssSZIeIV+gDXg10aD35wG1cWeSVDXOAn8LfBLYn8sSxh1IkqSksMCSJOkJ5AtsAt4KvBvojTuPpIo2DXybaM7VT51zJUnS41lgSZL0JPIFUsC1wK3AG4F1cWeSVFEWgV8SFVffzmUZizuQJElJZYElSdLTyBeoA34XuB34faAx7kySVr3DRFsFv5jLcjLuMJIkJZ0FliRJlylfoB14A9GKrFvweVTSlRsEvgLcCdyfy1KKO5AkSauBL7wlSbpC+QI7gL8A3g7siDuPpFVhCvhX4A7gR7ksM3EHkiRpNbHAkiTpKuQLBMBzgPcTrcpqjzuTpEQKgbuIVlx9NZdlJO5AkiStRhZYkiQ9A/kCTcDLiOZjvRiojzuTpMQ4Dvw18NlcliNxh5EkaTWzwJIkaQnkC3QDbyKaj3UtkIo7k6TYjAH/QLTq6lfOuZIk6ZmzwJIkaYmUtxXuBt4NvIX/f3t39v1bXddx/CEzCiKKGg7hlJpmJaZpW0zNpYlDaOZQYoSiDNffv2LfCigiCoVzCzWH5ZSh7cCVoqUuFSsxRRxJEQSBA118sUyFDnDO7/Mbno+1zvV5rnNz9nqtvd9fHji6KcmGuh6fwBn48GpyzeigJEm2iwasJEn2sHmxP56IU3AsDhvdlGSvuglfwll452pyxeigJEm2mwasJEn2klvuYz3Xesh6MvYd3ZRkj7sCb8Ub8OXVNDonSZLtqQErSZK9bF7c3/qTwhPxSP3/m2wHV+FDOB0XryY/HR2UJMl21gN0kiQbZF48Bifhpbj36J4kd8guXIwz8d7V5Mejg5Ik2QkasJIk2UDz4iDrzwlPwzNwyOimJLvtUrwJ568m3xgdkyTJTtKAlSTJAPPicDwfp+Jo7De6Kcmt+gHeYX2k/XPduUqSZOM1YCVJMtC8+HWcgFfgoaN7kvwf1+Kj1neuLlxNrhsdlCTJTtWAlSTJYPNiXzwWr8FxOGJ0U7LD3Yh/sb5z9Z7V5Pujg5Ik2ekasJIk2STmxYF4pvVnhU/HAaObkh3o6zgPb1pNvjY6JkmSrDVgJUmyycyLe+NF1r9Y+DvYZ3RTsgNcib+zfuvqM6vJjaODkiTJ/2rASpJkk5oXD7e+j3U8HjC6J9mmbsCFOAMfWk1+MjooSZL8sgasJEk2sXmxPx5v/Vnhc3CP0U3JNnEzvoCz8fbV5Dujg5Ikya1rwEqSZAuYF4fiWTgNT8KBo5uSLewKnI9zVpMvjY5JkiT/vwasJEm2kHnxa/hzvBKPGt2TbDFX4wM4HRetJjeMDkqSJLunAStJki1mXtwFj8ar8GIcObop2eSuxz9b37n6wGryw9FBSZLk9mnASpJki5oX++Ep1vexjsXBo5uSTeirOAd/vZpcPjomSZLcMQ1YSZJscfPiHngeTsYTsN/opmQT+C7+Fq/HF1aTXaODkiTJHdeAlSTJNjEvjsJf4EQ8dHRPMsh1+Ij154IfX01+OjooSZLceQ1YSZJsI/NiX/y29dtYL8QRo5uSDXITLsHrcMFqcuXooCRJsuc0YCVJsg3Ni4PxNJyGp+Kuo5uSvejrOBfnrSb/PjomSZLseQ1YSZJsY/PinvgzvBpHj+5J9rAf4QKciU+vJjeNDkqSJHtHA1aSJDvAvHgYTsDLcdTonuROug7/iNPx0dXk6tFBSZJk72rASpJkh5gX++D3re9jHYe7j25Kbqeb8UW8AW9bTb47OihJkmyMBqwkSXaYeXEInoVTcAwOGN2U7IbL8Tacja+sJjePDkqSJBunAStJkh1qXhyJF+MkPErPBdmcrsb7re9c/dNqcsPooCRJsvF6UE2SZAebF3fBI61HrJfgfqObklvswkU4A+9fTa4aHZQkScZpwEqSJObFgXgSTrP+vPDQ0U3ZsW7GV/FGvHU1+cbooCRJMl4DVpIk+R/z4lD8ifV9rCdin9FN2VG+j3fg9fh8d66SJMnPNGAlSZJfMi8eiJfjBDx8dE+2vWvw9zgdn1hNrh0dlCRJNpcGrCRJ8ivNC3is9X2sF+Neo5uy7ezCZ/E6XLCaXDk6KEmSbE4NWEmS5DbNi4PwVJyKZ+Dg0U3ZFi7DeXjzavK10TFJkmRza8BKkiS7ZV4cgeNwMn4X+45uypb0Q7zb+q2rT68mu0YHJUmSza8BK0mS3C7z4sH4KxyPB43uyZZxA/7B+s7VR1aTn4wOSpIkW0cDVpIkud3mxX54nPWvFT4P9xzdlE3rJnwRZ+Fdq8m3RwclSZKtpwErSZLcYfPiYPyx9X2sP8T+o5uyqVyB83H2avKV0TFJkmTrasBKkiR32ry4r/UvFb4Kj9Ezxk53FT6IM/Cp1eSno4OSJMnW1sNlkiTZY+bFb1rfx3o5jhzdkw13Az5lPVy9fzW5anRQkiTZHhqwkiTJHjUv9seTrD8rPBaHjm7KhrgU5+BvVpPLR8ckSZLtpQErSZLsFfPiMOsB61Q8AQeMbspe8T28A2/Av64mN48OSpIk208DVpIk2avmxf1wvPWnhY8Y3ZM95jp8GKfjwu5cJUmSvakBK0mS7HXzYh/r4+4n4UW47+im3GG78FmcifesJj8YHZQkSba/BqwkSbJh5sUBeJr1Z4XPxEGjm3K7fB3n4s2ryddGxyRJkp2jAStJkmy4eXFPHIfX4Pewz+im3KYr8V7rt64uWU1uHB2UJEl2lgasJEkyzLx4iPV9rBPwoNE9+SXX4ZM4Ax9ZTa4ZHZQkSXamBqwkSTLUvNgXR+NkvACHj24K+DzOwttXk++NjkmSJDtbA1aSJNkU5sUheDpOwzE4eHTTDvUtnI9z8OXVNDonSZKkAStJkmwy8+IIvASvtv7lwp5XNsY1eB9Ox0XduUqSJJtJD4RJkmTTmRd3wcNxIl6GB45u2sZuwMXWd64+uJr8aHRQkiTJL2rASpIkm9Yt97H+AKfgeThkdNM2cyneiLesJt8cHZMkSXJrGrCSJMmmNy8OxbNxKibsN7ppi/su3oXX4wuryU2jg5IkSW5LA1aSJNky5sX98VK8Co/Qs8ztdQ0+Zv254IWryXWjg5IkSXZHD31JkmRLueU+1qOtj7y/BPcZ3bQF3IzP4ExcsJr81+igJEmS26MBK0mSbEnz4iA8GafhGbqPdWsuw7k4bzX5j9ExSZIkd0QDVpIk2dLmxWF4AU7G47HP6KZN4oe4wPqtq8905ypJkmxlDVhJkmRbmBdH4S/xCjx0dM9A1+GTeC0+tppcMzooSZLkzmrASpIk28Yt97Eeh9fgT3H46KYNdBO+iLPwztXkO6ODkiRJ9pQGrCRJsu3Mi4PxRzgVT8eBo5v2ssvxFpyNr64mN48OSpIk2ZMasJIkybY1L+6DF1q/kfUY7Du6aQ+7Ch+wvnN18Wpy/eigJEmSvaEBK0mSbHvz4mE4EcfjAaN79oBduAin432rydWjg5IkSfamBqwkSbIjzIv9rX+l8FQ8B/cY3XQHXWr9qeBbV5Nvjo5JkiTZCA1YSZJkR5kXd8OxOAVPxv6jm3bT9/F26yPtn+/OVZIk2UkasJIkyY40L47Ey/BKPGp0z234CT6K1+KTq8l1o4OSJEk2WgNWkiTZ0ebFb1mPWC/DfUf3/Jwb8Vm8Du9eTa4cHZQkSTJKA1aSJNnxbrmPdYz1faxn466Dky7DuXjzanLZ4JYkSZLhGrCSJEluMS8Ox3NxEo7G3TY44XJ80PrO1SWrya7R/yZJkiSbQQNWkiTJL5gX98Ez8Xw8BffCfnvpr7sWX8aH8V58ejW5fvS/QZIkyWbSgJUkSXIr5sXd8RDrEesYPAwPsB607uhz1LW4At/AJfg4Podv9cZVkiTJr9aAlSRJshvmxQE4Co+0HrV+Aw+2HrSOwGHWt7N+9nx1PX6MK/Ft/Cf+7ef+XNph9iRJkt3z32HdSBgq2ISkAAAAJXRFWHRkYXRlOmNyZWF0ZQAyMDE3LTA3LTEzVDE2OjI5OjE2KzAwOjAwzRkMcQAAACV0RVh0ZGF0ZTptb2RpZnkAMjAxNy0wNy0xM1QxNjoyOToxNiswMDowMLxEtM0AAAAZdEVYdFNvZnR3YXJlAEFkb2JlIEltYWdlUmVhZHlxyWU8AAAAAElFTkSuQmCC;imageBorder=none;" vertex="1" parent="1">
                    <mxGeometry x="346.58000000000004" y="121.16" width="186.29" height="100.59" as="geometry"/>
                </mxCell>
                <mxCell id="3_ghw4BVQXb2c1C_pC2T-1" value="" style="points=[];aspect=fixed;html=1;align=center;shadow=0;dashed=0;fillColor=#FF6A00;strokeColor=none;shape=mxgraph.alibaba_cloud.prometheus;" vertex="1" parent="1">
                    <mxGeometry x="70" y="137.54999999999998" width="48.9" height="48.9" as="geometry"/>
                </mxCell>
                <mxCell id="3_ghw4BVQXb2c1C_pC2T-2" value="Prometheus" style="text;html=1;align=center;verticalAlign=middle;resizable=0;points=[];autosize=1;strokeColor=none;fillColor=none;" vertex="1" parent="1">
                    <mxGeometry x="49.45" y="199" width="90" height="30" as="geometry"/>
                </mxCell>
                <mxCell id="AsPMvLqgGhPOoDrevvMt-1" value="" style="points=[];aspect=fixed;html=1;align=center;shadow=0;dashed=0;fillColor=#dae8fc;strokeColor=#6c8ebf;shape=mxgraph.alibaba_cloud.prometheus;" vertex="1" parent="1">
                    <mxGeometry x="330" y="147.00000000000003" width="48.9" height="48.9" as="geometry"/>
                </mxCell>
                <mxCell id="AsPMvLqgGhPOoDrevvMt-2" value="クライアント&lt;div&gt;ライブラリ&lt;/div&gt;" style="text;html=1;align=center;verticalAlign=middle;resizable=0;points=[];autosize=1;strokeColor=none;fillColor=none;" vertex="1" parent="1">
                    <mxGeometry x="299.99999999999994" y="199" width="100" height="40" as="geometry"/>
                </mxCell>
                <mxCell id="AsPMvLqgGhPOoDrevvMt-5" value="監視対象" style="text;html=1;align=center;verticalAlign=middle;resizable=0;points=[];autosize=1;strokeColor=none;fillColor=none;" vertex="1" parent="1">
                    <mxGeometry x="390.59" y="239.95" width="70" height="30" as="geometry"/>
                </mxCell>
                <mxCell id="1E2dCnLQcUhuQDEiOaA5-1" value="" style="endArrow=classic;html=1;" edge="1" parent="1">
                    <mxGeometry width="50" height="50" relative="1" as="geometry">
                        <mxPoint x="140" y="153" as="sourcePoint"/>
                        <mxPoint x="310" y="153" as="targetPoint"/>
                    </mxGeometry>
                </mxCell>
                <mxCell id="1E2dCnLQcUhuQDEiOaA5-2" value="メトリクス収集リクエスト" style="text;html=1;align=center;verticalAlign=middle;resizable=0;points=[];autosize=1;strokeColor=none;fillColor=none;" vertex="1" parent="1">
                    <mxGeometry x="139.45" y="118" width="170" height="30" as="geometry"/>
                </mxCell>
                <mxCell id="1E2dCnLQcUhuQDEiOaA5-3" value="" style="endArrow=classic;html=1;" edge="1" parent="1">
                    <mxGeometry width="50" height="50" relative="1" as="geometry">
                        <mxPoint x="310" y="180" as="sourcePoint"/>
                        <mxPoint x="140" y="180" as="targetPoint"/>
                    </mxGeometry>
                </mxCell>
                <mxCell id="1E2dCnLQcUhuQDEiOaA5-4" value="レスポンス" style="text;html=1;align=center;verticalAlign=middle;resizable=0;points=[];autosize=1;strokeColor=none;fillColor=none;" vertex="1" parent="1">
                    <mxGeometry x="184.45" y="156.45" width="80" height="30" as="geometry"/>
                </mxCell>
                <mxCell id="GFGAVsUgA1yNW-HjhEZA-2" value="" style="sketch=0;outlineConnect=0;fontColor=#232F3E;gradientColor=none;fillColor=#232F3D;strokeColor=none;dashed=0;verticalLabelPosition=bottom;verticalAlign=top;align=center;html=1;fontSize=12;fontStyle=0;aspect=fixed;pointerEvents=1;shape=mxgraph.aws4.user;" vertex="1" parent="1">
                    <mxGeometry x="690" y="118" width="78" height="78" as="geometry"/>
                </mxCell>
                <mxCell id="GFGAVsUgA1yNW-HjhEZA-3" style="edgeStyle=none;html=1;entryX=1.014;entryY=0.425;entryDx=0;entryDy=0;entryPerimeter=0;" edge="1" parent="1" source="GFGAVsUgA1yNW-HjhEZA-2" target="1E2dCnLQcUhuQDEiOaA5-5">
                    <mxGeometry relative="1" as="geometry"/>
                </mxCell>
                <mxCell id="GFGAVsUgA1yNW-HjhEZA-5" value="ユーザー操作" style="text;html=1;align=center;verticalAlign=middle;resizable=0;points=[];autosize=1;strokeColor=none;fillColor=none;" vertex="1" parent="1">
                    <mxGeometry x="590" y="126.45" width="100" height="30" as="geometry"/>
                </mxCell>
                <mxCell id="d7p1fqfph-84xeEgXmEO-1" value="" style="endArrow=classic;html=1;" edge="1" parent="1">
                    <mxGeometry width="50" height="50" relative="1" as="geometry">
                        <mxPoint x="500" y="155.45" as="sourcePoint"/>
                        <mxPoint x="490" y="186.45" as="targetPoint"/>
                        <Array as="points">
                            <mxPoint x="500" y="155.45"/>
                            <mxPoint x="530" y="155.45"/>
                            <mxPoint x="540" y="166.45"/>
                            <mxPoint x="540" y="176.45"/>
                            <mxPoint x="530" y="185.45"/>
                        </Array>
                    </mxGeometry>
                </mxCell>
                <mxCell id="d7p1fqfph-84xeEgXmEO-3" value="メトリクス記録" style="text;html=1;align=center;verticalAlign=middle;resizable=0;points=[];autosize=1;strokeColor=none;fillColor=none;" vertex="1" parent="1">
                    <mxGeometry x="460" y="107.55" width="110" height="30" as="geometry"/>
                </mxCell>
                <mxCell id="d7p1fqfph-84xeEgXmEO-4" value="ユーザー" style="text;html=1;align=center;verticalAlign=middle;resizable=0;points=[];autosize=1;strokeColor=none;fillColor=none;" vertex="1" parent="1">
                    <mxGeometry x="694" y="204" width="70" height="30" as="geometry"/>
                </mxCell>
            </root>
        </mxGraphModel>
    </diagram>
    <diagram id="9SFccNJGWnHbdpQNJelQ" name="ページ1">
        <mxGraphModel dx="825" dy="210" grid="1" gridSize="10" guides="1" tooltips="1" connect="1" arrows="1" fold="1" page="1" pageScale="1" pageWidth="827" pageHeight="1169" math="0" shadow="0">
            <root>
                <mxCell id="0"/>
                <mxCell id="1" parent="0"/>
                <mxCell id="2" value="" style="points=[];aspect=fixed;html=1;align=center;shadow=0;dashed=0;fillColor=#FF6A00;strokeColor=none;shape=mxgraph.alibaba_cloud.prometheus;" vertex="1" parent="1">
                    <mxGeometry x="70" y="137.54999999999998" width="48.9" height="48.9" as="geometry"/>
                </mxCell>
                <mxCell id="3" value="Prometheus" style="text;html=1;align=center;verticalAlign=middle;resizable=0;points=[];autosize=1;strokeColor=none;fillColor=none;" vertex="1" parent="1">
                    <mxGeometry x="49.45" y="194" width="90" height="30" as="geometry"/>
                </mxCell>
                <mxCell id="4" value="" style="points=[];aspect=fixed;html=1;align=center;shadow=0;dashed=0;fillColor=#dae8fc;strokeColor=#6c8ebf;shape=mxgraph.alibaba_cloud.prometheus;" vertex="1" parent="1">
                    <mxGeometry x="320.55" y="137.54999999999998" width="48.9" height="48.9" as="geometry"/>
                </mxCell>
                <mxCell id="6" value="Exporter" style="text;html=1;align=center;verticalAlign=middle;resizable=0;points=[];autosize=1;strokeColor=none;fillColor=none;" vertex="1" parent="1">
                    <mxGeometry x="310" y="194" width="70" height="30" as="geometry"/>
                </mxCell>
                <mxCell id="7" value="" style="image;aspect=fixed;html=1;points=[];align=center;fontSize=12;image=img/lib/azure2/databases/Azure_Database_PostgreSQL_Server.svg;" vertex="1" parent="1">
                    <mxGeometry x="531" y="130" width="48" height="64" as="geometry"/>
                </mxCell>
                <mxCell id="8" value="監視対象" style="text;html=1;align=center;verticalAlign=middle;resizable=0;points=[];autosize=1;strokeColor=none;fillColor=none;" vertex="1" parent="1">
                    <mxGeometry x="520" y="194" width="70" height="30" as="geometry"/>
                </mxCell>
                <mxCell id="9" value="" style="endArrow=classic;html=1;" edge="1" parent="1">
                    <mxGeometry width="50" height="50" relative="1" as="geometry">
                        <mxPoint x="140" y="153" as="sourcePoint"/>
                        <mxPoint x="310" y="153" as="targetPoint"/>
                    </mxGeometry>
                </mxCell>
                <mxCell id="10" value="" style="endArrow=classic;html=1;" edge="1" parent="1">
                    <mxGeometry width="50" height="50" relative="1" as="geometry">
                        <mxPoint x="390" y="150" as="sourcePoint"/>
                        <mxPoint x="390" y="180" as="targetPoint"/>
                        <Array as="points">
                            <mxPoint x="440" y="150"/>
                            <mxPoint x="470" y="150"/>
                            <mxPoint x="500" y="150"/>
                            <mxPoint x="510" y="150"/>
                            <mxPoint x="520" y="160"/>
                            <mxPoint x="520" y="170"/>
                            <mxPoint x="510" y="180"/>
                            <mxPoint x="500" y="180"/>
                            <mxPoint x="470" y="180"/>
                            <mxPoint x="440" y="180"/>
                        </Array>
                    </mxGeometry>
                </mxCell>
                <mxCell id="11" value="メトリクス収集リクエスト" style="text;html=1;align=center;verticalAlign=middle;resizable=0;points=[];autosize=1;strokeColor=none;fillColor=none;" vertex="1" parent="1">
                    <mxGeometry x="139.45" y="118" width="170" height="30" as="geometry"/>
                </mxCell>
                <mxCell id="15" value="メトリクス収集＆&lt;div&gt;メトリクス整形&lt;/div&gt;" style="text;html=1;align=left;verticalAlign=middle;resizable=0;points=[];autosize=1;strokeColor=none;fillColor=none;" vertex="1" parent="1">
                    <mxGeometry x="411" y="108" width="120" height="40" as="geometry"/>
                </mxCell>
                <mxCell id="17" value="" style="endArrow=classic;html=1;" edge="1" parent="1">
                    <mxGeometry width="50" height="50" relative="1" as="geometry">
                        <mxPoint x="310" y="180" as="sourcePoint"/>
                        <mxPoint x="140" y="180" as="targetPoint"/>
                    </mxGeometry>
                </mxCell>
                <mxCell id="18" value="レスポンス" style="text;html=1;align=center;verticalAlign=middle;resizable=0;points=[];autosize=1;strokeColor=none;fillColor=none;" vertex="1" parent="1">
                    <mxGeometry x="184.45" y="156.45" width="80" height="30" as="geometry"/>
                </mxCell>
            </root>
        </mxGraphModel>
    </diagram>
</mxfile>